<svg xmlns="http://www.w3.org/2000/svg" xmlns:xlink="http://www.w3.org/1999/xlink" width="148mm" height="210mm" viewBox="0 0 419.53 595.28">
  <defs>
    <style>
      .cls-1 {
        fill: #141412;
      }

      .cls-2, .cls-8 {
        fill: none;
      }

      .cls-3, .cls-6 {
        fill: #fff;
      }

      .cls-3, .cls-8 {
        stroke: #141412;
        stroke-miterlimit: 10;
      }

      .cls-4 {
        clip-path: url(#clip-path);
      }

      .cls-5 {
        clip-path: url(#clip-path-2);
      }

      .cls-7 {
        clip-path: url(#clip-path-3);
      }
    </style>
    <clipPath id="clip-path">
      <rect class="cls-1" y="-615.28" width="419.53" height="595.28"/>
    </clipPath>
    <clipPath id="clip-path-2">
      <rect class="cls-2" x="439.53" width="419.53" height="593.88"/>
    </clipPath>
    <clipPath id="clip-path-3">
      <rect class="cls-3" y="-0.59" width="419.53" height="595.95"/>
    </clipPath>
  </defs>
  <title>Plan de travail 2</title>
  <g id="Calque_1" data-name="Calque 1">
    <g>
      <rect class="cls-1" y="-615.28" width="419.53" height="595.28"/>
      <g class="cls-4">
        <polygon class="cls-3" points="183.11 -75.72 153.36 -25.72 183.11 24.28 212.95 -25.52 183.11 -75.72"/>
        <polygon class="cls-3" points="242.73 -75.67 212.97 -25.67 242.73 24.33 272.57 -25.46 242.73 -75.67"/>
        <polygon class="cls-1" points="212.91 -25.62 183.16 24.38 212.91 74.38 242.75 24.59 212.91 -25.62"/>
        <polygon class="cls-3" points="302.29 -76.94 272.54 -26.94 302.29 23.06 332.13 -26.73 302.29 -76.94"/>
        <polygon class="cls-1" points="272.47 -26.89 242.71 23.11 272.47 73.11 302.31 23.32 272.47 -26.89"/>
        <polygon class="cls-3" points="361.91 -76.89 332.15 -26.89 361.91 23.11 391.75 -26.68 361.91 -76.89"/>
        <polygon class="cls-1" points="332.09 -26.84 302.33 23.16 332.09 73.17 361.93 23.37 332.09 -26.84"/>
        <polygon class="cls-3" points="302.27 23.22 272.51 73.22 302.27 123.22 332.11 73.42 302.27 23.22"/>
        <polygon class="cls-3" points="421.6 -76.97 391.84 -26.96 421.6 23.04 451.44 -26.76 421.6 -76.97"/>
        <polygon class="cls-1" points="391.77 -26.91 362.02 23.09 391.77 73.09 421.62 23.29 391.77 -26.91"/>
        <polygon class="cls-3" points="361.95 23.14 332.2 73.14 361.95 123.14 391.8 73.35 361.95 23.14"/>
        <polygon class="cls-3" points="332.13 73.19 302.38 123.19 332.13 173.19 361.98 123.4 332.13 73.19"/>
        <polygon class="cls-3" points="421.57 23.19 391.82 73.19 421.57 123.19 451.42 73.4 421.57 23.19"/>
        <polygon class="cls-3" points="391.75 73.24 362 123.24 391.75 173.24 421.6 123.45 391.75 73.24"/>
        <polygon class="cls-3" points="361.93 123.29 332.18 173.29 361.93 223.29 391.77 173.5 361.93 123.29"/>
        <polygon class="cls-3" points="4.13 -75.68 -25.63 -25.68 4.13 24.32 33.97 -25.48 4.13 -75.68"/>
        <polygon class="cls-3" points="-25.65 -25.63 -55.41 24.37 -25.65 74.37 4.19 24.57 -25.65 -25.63"/>
        <polygon class="cls-1" points="34.05 -26.98 4.3 23.02 34.05 73.02 63.9 23.23 34.05 -26.98"/>
        <polygon class="cls-3" points="63.83 -76.93 34.08 -26.93 63.83 23.07 93.67 -26.72 63.83 -76.93"/>
        <polygon class="cls-3" points="4.24 23.07 -25.52 73.07 4.24 123.07 34.08 73.28 4.24 23.07"/>
        <polygon class="cls-3" points="-25.59 73.13 -55.34 123.13 -25.59 173.13 4.26 123.33 -25.59 73.13"/>
        <polygon class="cls-3" points="63.81 23.13 34.05 73.13 63.81 123.13 93.65 73.33 63.81 23.13"/>
        <polygon class="cls-3" points="34.03 73.18 4.28 123.18 34.03 173.18 63.88 123.39 34.03 73.18"/>
        <polygon class="cls-3" points="4.21 123.23 -25.54 173.23 4.21 223.23 34.05 173.44 4.21 123.23"/>
        <polygon class="cls-3" points="-25.61 173.28 -55.36 223.28 -25.61 273.28 4.24 223.49 -25.61 173.28"/>
        <polygon class="cls-1" points="93.71 -26.87 63.95 23.13 93.71 73.13 123.55 23.33 93.71 -26.87"/>
        <polygon class="cls-3" points="123.44 -76.87 93.69 -26.87 123.44 23.13 153.29 -26.67 123.44 -76.87"/>
        <polygon class="cls-3" points="93.72 73.1 63.97 123.1 93.72 173.1 123.56 123.31 93.72 73.1"/>
        <polygon class="cls-3" points="123.5 23.15 93.74 73.15 123.5 123.15 153.34 73.36 123.5 23.15"/>
        <polygon class="cls-3" points="63.9 123.15 34.15 173.15 63.9 223.15 93.74 173.36 63.9 123.15"/>
        <polygon class="cls-1" points="153.27 -26.8 123.52 23.2 153.27 73.2 183.12 23.41 153.27 -26.8"/>
        <polygon class="cls-3" points="34.08 173.2 4.32 223.2 34.08 273.2 63.92 223.41 34.08 173.2"/>
        <polygon class="cls-3" points="4.26 223.26 -25.5 273.26 4.26 323.26 34.1 273.46 4.26 223.26"/>
        <polygon class="cls-3" points="123.47 123.2 93.72 173.2 123.47 223.2 153.32 173.41 123.47 123.2"/>
        <polygon class="cls-3" points="93.7 173.26 63.94 223.26 93.7 273.26 123.54 223.46 93.7 173.26"/>
        <polygon class="cls-3" points="63.88 223.31 34.12 273.31 63.88 323.31 93.72 273.51 63.88 223.31"/>
        <polygon class="cls-3" points="34.06 273.36 4.3 323.36 34.06 373.36 63.9 323.57 34.06 273.36"/>
        <polygon class="cls-3" points="153.37 73.2 123.62 123.2 153.37 173.2 183.21 123.41 153.37 73.2"/>
        <polygon class="cls-3" points="183.11 23.2 153.35 73.2 183.11 123.2 212.95 73.41 183.11 23.2"/>
      </g>
    </g>
  </g>
  <g id="Calque_2" data-name="Calque 2">
    <g class="cls-5">
      <path class="cls-3" d="M963.22,474.78c-1.24-1.07-3.45-.92-5.52.21a26.73,26.73,0,0,0-3.88-4.11c-.62-.54-1.27-1-1.92-1.51a2.22,2.22,0,0,0,.9-.5,1.7,1.7,0,0,0,0-2.59,2.24,2.24,0,0,0-2.91.1,1.8,1.8,0,0,0-.61,1.31,27.14,27.14,0,0,0-4.12-1.91c.17-.14.34-.28.5-.43,2.33-2.15,2.93-5,1.35-6.38,6.33-7.52,5.77-18-1.72-24.45-8.14-7-21.38-6.54-29.56,1a18.14,18.14,0,0,0-6.11,14.64,22.28,22.28,0,0,0-7.13,4.4,18.47,18.47,0,0,0-6.12,12.23c-8.85,1.51-19.66,7.15-29.13,15.88-.5.46-1,.92-1.45,1.38-1.75-.06-3.52-.07-5.3,0a2.32,2.32,0,0,0,0-.76,3,3,0,0,0-5.78,1c0,.06,0,.11,0,.17q-2.56.28-5.15.72a79.84,79.84,0,0,0-10.08,2.43,6,6,0,0,0-1.55-1.76,2.58,2.58,0,0,0,1.16-2.54,3,3,0,0,0-5.78,1l0,.09a7.94,7.94,0,0,0-1.17.11c-3.83.66-6.45,4-5.87,7.34a5.56,5.56,0,0,0,.31,1.08,74.88,74.88,0,0,0-7.4,4.43l-.53-.44a6.57,6.57,0,0,0,3.2-6.59c-.62-3.58-4.4-5.91-8.44-5.21a7.34,7.34,0,0,0-6.22,5.94,32.09,32.09,0,0,0-5.71-.94,10.7,10.7,0,0,0-.14-2.49c-1.54-8.87-14-14.12-27.81-11.72s-23.77,11.53-22.23,20.41c1.12,6.43,8,11,16.91,12a8.23,8.23,0,0,0,1.46.67,23.88,23.88,0,0,0-1.23,12.57,23.55,23.55,0,0,0,2.64,7.46l-.18,0c-3.53.61-6,3.65-5.42,6.78a5.12,5.12,0,0,0,.38,1.24,6.63,6.63,0,0,0-.89.09,6.44,6.44,0,0,0-2.69,1.12A25.82,25.82,0,0,0,753,528.25a4.94,4.94,0,0,0,1.28-4.15,5.46,5.46,0,0,0-6-4.2,7.07,7.07,0,0,0,2.46-6.49c-.69-4-4.87-6.54-9.34-5.77s-7.54,4.62-6.85,8.58,4.87,6.54,9.34,5.77h0a5.24,5.24,0,0,0-1.19,2.26,33.36,33.36,0,0,0-23,3.87,7.27,7.27,0,0,0-.1-1c-.77-4.43-5.45-7.32-10.46-6.45a10.12,10.12,0,0,0-3.94,1.58,27.07,27.07,0,0,0-2.25-2.68c4.48-1.56,7.35-5.73,6.6-10-.84-4.85-6-8-11.44-7.06s-9.23,5.65-8.39,10.5c0,.09,0,.18.06.27a14.83,14.83,0,0,0-4.79.68,56,56,0,0,0-4.42-10.65,6.41,6.41,0,0,0,5.92-1.43,4.75,4.75,0,0,0,0-7.27,6.29,6.29,0,0,0-8.16.28l0,0a3.27,3.27,0,0,0-.35-1.69,22.27,22.27,0,0,0,7.1-4.39,19.54,19.54,0,0,0,4.58-6.26,5.71,5.71,0,0,0,.54.53,7,7,0,0,0,9.13-.31,6,6,0,0,0,1.57-2.33,23.54,23.54,0,0,0,2.56.64,5.74,5.74,0,0,0,.8,8,7.7,7.7,0,0,0,10-.34,5.82,5.82,0,0,0,0-8.9l-.16-.13a9.87,9.87,0,0,0,1.59-1.19c2.88-2.65,3.63-6.62,2.51-10.8.19-.15.37-.3.55-.47,2.45-2.26,3.11-5.23,1.48-6.63-1.24-1.07-3.45-.92-5.52.21a26.73,26.73,0,0,0-3.88-4.11c-.62-.54-1.27-1-1.92-1.51a2.22,2.22,0,0,0,.9-.5,1.7,1.7,0,0,0,0-2.59,2.24,2.24,0,0,0-2.91.1,1.8,1.8,0,0,0-.61,1.31,27.14,27.14,0,0,0-4.12-1.91c.17-.14.34-.28.5-.43,2.33-2.15,2.93-5,1.35-6.38,6.33-7.52,5.77-18-1.72-24.45-8.14-7-21.38-6.54-29.56,1A18.14,18.14,0,0,0,666.7,436a22.28,22.28,0,0,0-7.13,4.4,18.47,18.47,0,0,0-6.12,12.23c-8.85,1.51-19.66,7.15-29.13,15.88-.5.46-1,.92-1.45,1.38-1.75-.06-3.52-.07-5.3,0a2.32,2.32,0,0,0,0-.76,3,3,0,0,0-5.78,1c0,.06,0,.11,0,.17q-2.56.28-5.15.72a79.84,79.84,0,0,0-10.08,2.43,6,6,0,0,0-1.55-1.76,2.58,2.58,0,0,0,1.16-2.54,3,3,0,0,0-5.78,1l0,.09a7.94,7.94,0,0,0-1.17.11c-3.83.66-6.45,4-5.87,7.34a5.56,5.56,0,0,0,.31,1.08,74.88,74.88,0,0,0-7.4,4.43l-.53-.44a6.57,6.57,0,0,0,3.2-6.59c-.62-3.58-4.4-5.91-8.44-5.21a7.34,7.34,0,0,0-6.22,5.94,32.76,32.76,0,0,0-13.9-.55,33.53,33.53,0,0,0-6.92,2v0c-.78-4.52-4-7.74-7.1-7.2s-5,4.65-4.26,9.17c0,.23.09.45.14.68a9.07,9.07,0,0,0-3.54-.09c-4.47.78-7.54,4.62-6.85,8.58a7.14,7.14,0,0,0,4.94,5.44,23.88,23.88,0,0,0-1.23,12.57,23.55,23.55,0,0,0,2.64,7.46l-.18,0c-3.53.61-6,3.65-5.42,6.78a5.12,5.12,0,0,0,.38,1.24,6.63,6.63,0,0,0-.89.09,6.44,6.44,0,0,0-2.69,1.12A25.82,25.82,0,0,0,510.08,514a4.94,4.94,0,0,0,1.28-4.15,5.46,5.46,0,0,0-6-4.2,7.07,7.07,0,0,0,2.46-6.49c-.69-4-4.87-6.54-9.34-5.77S491,498,491.66,502s4.87,6.54,9.34,5.77h0a5.24,5.24,0,0,0-1.19,2.26,33.36,33.36,0,0,0-23,3.87,7.27,7.27,0,0,0-.1-1c-.77-4.43-5.45-7.32-10.46-6.45a10.12,10.12,0,0,0-3.94,1.58,27.07,27.07,0,0,0-2.25-2.68c4.48-1.56,7.35-5.73,6.6-10-.84-4.85-6-8-11.44-7.06s-9.23,5.65-8.39,10.5c0,.09,0,.18.06.27a15.17,15.17,0,0,0-2.88.22c-5.69,1-10.26,5.11-12.94,10.89-.35,0-.7.08-1.05.14-4.85.84-8.38,3.86-7.88,6.73.38,2.19,3,3.66,6.35,3.87a34.45,34.45,0,0,0,.47,7.76c.19,1.1.44,2.17.72,3.22a3.22,3.22,0,0,0-1.46-.08,2.62,2.62,0,1,0,.89,5.12,3.13,3.13,0,0,0,1.91-1.1,31.36,31.36,0,0,0,2.79,5.33c-.32,0-.64.07-1,.13-4.61.8-8,3.72-7.49,6.53-14.12,4.16-23.35,17-21.06,30.2,2.49,14.36,17.65,23.71,33.87,20.9a31.47,31.47,0,0,0,20.57-12.74,33,33,0,0,0,12.07.12,32,32,0,0,0,18.3-9.89,55,55,0,0,0,11.39,3.33,9.21,9.21,0,0,0-1.75,1.44,7.36,7.36,0,0,0,.93,11.25,9.84,9.84,0,0,0,12.67-1.29,7.36,7.36,0,0,0,.37-10.07,110.4,110.4,0,0,0,17.44-.75,5.09,5.09,0,0,0-1,.81,4.09,4.09,0,0,0,.52,6.25,5.46,5.46,0,0,0,7-.72,4.09,4.09,0,0,0-.52-6.25,4.9,4.9,0,0,0-1.51-.73l1.81-.29c1.56-.27,3.1-.58,4.62-.9a17.29,17.29,0,0,0,18.81,10.66,16.88,16.88,0,0,0,11.56-7.95c15,11,35.36,16.11,56.49,12.45a78.74,78.74,0,0,0,18.94-5.81,23.58,23.58,0,0,0,.34,4.4c2.49,14.36,17.65,23.71,33.87,20.9a31.47,31.47,0,0,0,20.57-12.74,33,33,0,0,0,12.07.12,32,32,0,0,0,18.3-9.89,55,55,0,0,0,11.39,3.33,9.21,9.21,0,0,0-1.75,1.44,7.36,7.36,0,0,0,.93,11.25,9.84,9.84,0,0,0,12.67-1.29,7.36,7.36,0,0,0,.37-10.07,110.4,110.4,0,0,0,17.44-.75,5.09,5.09,0,0,0-1,.81,4.09,4.09,0,0,0,.52,6.25,5.46,5.46,0,0,0,7-.72,4.09,4.09,0,0,0-.52-6.25,4.9,4.9,0,0,0-1.51-.73l1.81-.29c1.56-.27,3.1-.58,4.62-.9a17.29,17.29,0,0,0,18.81,10.66,16.88,16.88,0,0,0,11.56-7.95c15,11,35.36,16.11,56.49,12.45,38.24-6.64,64.47-39.46,58.6-73.32a55.62,55.62,0,0,0-5.93-17,6.41,6.41,0,0,0,5.92-1.43,4.75,4.75,0,0,0,0-7.27,6.29,6.29,0,0,0-8.16.28l0,0a3.27,3.27,0,0,0-.35-1.69,22.27,22.27,0,0,0,7.1-4.39,19.54,19.54,0,0,0,4.58-6.26,5.71,5.71,0,0,0,.54.53,7,7,0,0,0,9.13-.31,6,6,0,0,0,1.57-2.33,23.54,23.54,0,0,0,2.56.64,5.74,5.74,0,0,0,.8,8,7.7,7.7,0,0,0,10-.34,5.82,5.82,0,0,0,0-8.9l-.16-.13a9.87,9.87,0,0,0,1.59-1.19c2.88-2.65,3.63-6.62,2.51-10.8.19-.15.37-.3.55-.47C964.19,479.15,964.85,476.19,963.22,474.78Z"/>
    </g>
    <g>
      <rect class="cls-6" y="-0.59" width="419.53" height="595.95"/>
      <g class="cls-7">
        <g>
          <path class="cls-3" d="M71,542.24l-2.22.95A3.44,3.44,0,0,0,71,542.24Z"/>
          <path class="cls-3" d="M421.24,471.35c-11.52,4.87-18.73,20.28-31.18,19.09-11.28-1.07-16.06-15.53-14.17-26.71s7.66-21.88,6.62-33.17c-.44-4.78-2.06-9.78-.22-14.21,2.92-7,12.23-8.08,19.82-8.07-4.85-16-4.63-33.08-2.93-49.7a290.15,290.15,0,0,1,11-54.82c-11.89,5-16,19.61-17.12,32.44S392,363.15,383.67,373c-2.82,3.33-6.66,6.33-7.22,10.67-.29,2.24.39,4.47.72,6.7,1.69,11.3-5.23,21.9-11.82,31.23-3.45,4.89-7.58,10.2-13.51,11s-12.14-6.83-8-11.14A17,17,0,0,1,330.1,417a27.23,27.23,0,0,0,6.68-26.52C334,381.1,326.33,374.09,319,367.58c-2.67,2.38-1.2,6.93,1.31,9.47s5.92,4.35,7.51,7.55c4.47,9-8.27,16.94-10.89,26.62-1.12,4.13-.32,8.69-2,12.61-1.09,2.48-3.08,4.44-5,6.33l-14.42,14c.72-7.65-5.94-15.19-13.62-15.42,6.09,15.32,1.73,32.87-5.46,47.71s-17.12,28.34-22.94,43.76c-2,5.26-4.29,11.5-9.73,12.9a22.43,22.43,0,0,1,4,26.65,15.49,15.49,0,0,1-12.54-7.62l-2.47,5.9-9-.12a80.18,80.18,0,0,0-10.63-36.4,4.18,4.18,0,0,0-5.16,4.34,116.86,116.86,0,0,1-6.27,58.4,6.49,6.49,0,0,1-2.06,3.22c-1.51,1-3.54.67-5.31.2a95.35,95.35,0,0,1-59.13-46.77c-2.24-4.21-4.71-9.05-9.32-10.24l-2.88,11.43c-5.66-18.53-31.07-24.17-39-41.84-2.63-5.85-3.25-12.86-7.77-17.41-3.24-3.27-8.31-5-9.9-9.37-.89-2.42-.44-5.13-1-7.65-1.58-7.47-10.39-10.39-17.65-12.74S32,445.3,33.4,437.81a6.51,6.51,0,0,0-6.31,3.93A7.16,7.16,0,0,1,21,436a9.32,9.32,0,0,0-6.93,1.93,232.36,232.36,0,0,0,42.44,30.73c2.58,8.16,1,17,1,25.53s2.36,18.22,9.84,22.39c4.68,2.61,12.19,6.36,9,10.64-1,1.3-2.69,1.77-4.28,2.1a71.38,71.38,0,0,1-37.81-2.39c-12.1-4.19-25.42-11.65-36.74-5.66A267.44,267.44,0,0,0,62,555.38c-2.31,6.35,5.58,11.87,12.33,12.36s14.18-1.11,19.8,2.65A5.9,5.9,0,0,1,96.45,573c1.18,3.09-2,6.26-5.16,7.11s-6.67.39-9.79,1.49c-4.44,1.56-7.41,6-11.81,7.61-3.64,1.37-7.69.67-11.52,0l-40.05-7.5c-3.05,2.42.42,7.53,4.25,8.22s8-.59,11.57.95c3,1.29,4.92,4.31,7.68,6.07,4.13,2.64,9.44,2.13,14.31,1.52l40.26-5c5-.62,10.17-1.22,14.94.35s9,6,8.62,11c-9.54-3.52-16,9.58-24.36,15.38-7.61,5.3-17.76,4.35-27,3.19-1.74,5.44,4.26,10.74,10,10.92s10.94-2.87,16.18-5.17a67.25,67.25,0,0,1,47.49-2.32c2.45.8,5,1.87,6.46,4,3.34,4.92-1.58,11.72-7.25,13.52s-11.88.82-17.65,2.27a6.27,6.27,0,0,0-3.27,1.69c-2.55,2.89,1.08,7.58,4.92,8s7.51-1.52,11.34-2,8.68,1.74,8.43,5.59l-17.68,5.64,46.75,17.25c10.08,3.72,20.57,7.5,31.27,6.54,10.95-1,20.89-6.82,31.7-8.8,11.45-2.1,23.18.22,34.76,1.42a179.29,179.29,0,0,0,52.06-2.26c9.23-1.77,19.35-5.06,23.67-13.4,4.46-8.61.88-19.23-4.3-27.42s-12-15.61-14.76-24.92c-8.89-1.3-15.16-11.77-12.09-20.22,2.75-7.57,10.71-11.59,17.18-16.38a58.66,58.66,0,0,0,20.06-26.92c6.22-17.08,4.21-35.92,2.13-54-3.06,12.2-.38,25.18-2.64,37.55-3.42,18.73-17.45,33.46-30.85,47-3.26,3.29-6.73,6.71-11.21,7.9s-10.15-.85-11.25-5.34c-.62-2.56.33-5.21,1.27-7.67l10.22-26.76a8.83,8.83,0,0,1-7.43-1.77,48.92,48.92,0,0,0,8.08-23l-18.39,17.16c-2.9,2.71-5.85,5.48-7.73,9-3.61,6.73-3,15.72-8.54,21-2.11-1.72-3-4.47-3.84-7.07-2.42-7.69-4.86-15.61-4.17-23.64s5.31-16.27,13-18.75c3.49-1.13,7.36-1,10.65-2.65,6.61-3.27,8.19-12.1,7.11-19.4s-4-14.48-3.1-21.8,7.87-14.73,14.83-12.29c4.31,1.51,6.67,6,9.81,9.32s9.12,5.33,11.9,1.71c-6.73-4.82-12-13.3-9.49-21.19s15.6-10.68,18.95-3.11c1.22,2.77,1,6.29,3.19,8.38,2.45,2.34,6.79,1.36,9-1.23s2.69-6.18,2.73-9.57c7.17-2.39,14.52,4.81,15.63,12.29s-1.87,14.86-4,22.12-3.28,15.65,1,21.91c1.31,1.93,3.44,3.66,5.74,3.27-2.86,1.68-2.58,6.09-.71,8.83s4.81,4.58,6.81,7.23c6.88,9.16-.25,21.94-7.25,31l-2.79,3.62c7.52-5.35,19.82-.83,22.09,8.1l-36,19c-2.81,1.48-5.94,3.39-6.44,6.52-.32,2,.56,4,1.25,5.88a34.83,34.83,0,0,1-8.4,36.07c6.87-1.41,8.5-10.21,10-17.07a56.93,56.93,0,0,1,29.19-38.12c7.87-4,18-7.83,19.24-16.6.52-3.79-.92-7.54-2.34-11.09L393,533.64c-1.64-4.12-3.31-8.37-3.26-12.8C389.94,500.49,423.8,491.55,421.24,471.35ZM71,510.74a13.07,13.07,0,0,1-2-4.16,41,41,0,0,1-1.86-15.72l.07,1.78c5.72-.25,10.1,5.17,12.13,10.52s2.84,11.34,6.32,15.89c2.89,3.77,7.73,7.15,7,11.84-6.26-3.48-9.07-11.14-14.92-15.27C75.45,514,72.72,512.93,71,510.74Zm22.47,48.14a4.56,4.56,0,0,1-1.09,2.3,5,5,0,0,1-3,1c-3.09.36-6.3.71-9.27-.2s-5.69-3.45-5.79-6.56c-.06-1.77.71-3.6.14-5.27-.82-2.39-3.77-3.12-6.27-3.49l-21.82-3.24c-2-.29-4.59-1.49-4-3.41q14.38.64,28.7,2.12a3.52,3.52,0,0,0,1.11-2.64c2.06-1.35,4.55,1.3,7,1.29,3.08,0,4.64-4,7.59-4.94,2.46-.77,5.14,1,6.31,3.26s1.23,5,1.25,7.55A50.1,50.1,0,0,1,93.47,558.88Zm48.61,60.93c-2.37-.36-4.79.18-7.18.08a27.24,27.24,0,0,1-6.14-1.2l-7.83-2.16a46.31,46.31,0,0,1,20-6.29l-2.46,1.22,3.64-1.59c-2.72-2.64-7.29-2.49-10.08-5.06-2.26-2.09-2.78-5.39-4-8.24a17.25,17.25,0,0,0-7.39-8.31c-1.76-1-3.71-1.68-5.28-2.95s-2.72-3.37-2.1-5.29c2.92-2,7-.74,9.66,1.57s4.3,5.52,6.44,8.3,5.16,5.31,8.67,5.29c2.6,0,5-1.44,7.54-1.84,3-.47,6,.46,8.85,1.38a5.33,5.33,0,0,1,4.75,6c.26,4,.08,8.8-3.39,10.74-1.6.9-3.78,1.05-4.74,2.62-1.57,2.56,1.71,5.33,4.48,6.49s6.19,3.58,5,6.32C154,628.71,148.75,620.83,142.08,619.81Zm70.09,66.41a2.3,2.3,0,0,1-1.86.87c-7.37.77-14.3-3.23-21.51-5-4.58-1.11-9.37-1.32-13.82-2.87s-8.72-4.9-9.47-9.55l-.44,1.79c-.52-5.88-8.16-8.64-9.94-14.27a7.91,7.91,0,0,1,13.07-8c2.8,2.74,3.51,7.45,7,9.27,2.73,1.44,6,.47,9.13.3,6.63-.36,13,3.3,17.43,8.23s7.34,11,10.16,17.06A2.47,2.47,0,0,1,212.16,686.22Zm6.57-78.37c-.58,2.87-1.8,6-4.54,7.08-1.86.71-3.94.23-5.89-.16-5.88-1.16-12.21-1.37-17.66,1.13s-9.71,8.27-9,14.22A53.09,53.09,0,0,1,165,598.48c-.36-2.6-.55-5.31-1.84-7.59-4.12-7.3-15.72-5.47-22-11.08-2.74-2.47-4.19-6.2-7.14-8.42-5.66-4.24-14-1.2-20.56-3.88-5.51-2.26-8.7-8.3-9.28-14.23-.48-5,.56-10,1.84-14.86-.24-.34-.48-.68-.7-1l1.42-1.68q-.37,1.35-.72,2.71a28.31,28.31,0,0,0,20.57,11.74c1.63.13,3.42.16,4.68,1.2,3.1,2.55.16,7.82,1.73,11.51.8,1.88,2.65,3.05,4.39,4.11l40.29,24.39c4.27,2.59,8.66,5.22,13.57,6.12,10.31,1.9,21.46-5.4,23.85-15.61A40.14,40.14,0,0,1,218.74,607.85ZM292.9,505.26a10.73,10.73,0,0,1-2.89,4.46c-3.71,4-9.29,7.85-14.12,5.39-1.91-2.68,1.49-5.82,3.16-8.66s1.57-6.36,1.83-9.66,1.18-7,4-8.66l.55-2.6q3,6.13,5.87,12.28C292.4,500.15,293.54,502.74,292.9,505.26Z"/>
        </g>
        <path class="cls-3" d="M296.52,558.3a26.87,26.87,0,0,0-13.17,28.89c.33,1.43,1.63,3.2,2.86,2.4A87.67,87.67,0,0,1,295.37,559"/>
        <path class="cls-3" d="M87.83,459.15a7,7,0,0,0-1.15,10c1.19,1.33,2.9,2.17,3.87,3.68,1.57,2.44.65,5.62.5,8.51s1.57,6.58,4.44,6.14c.64-5.11,1.1-10.34,0-15.36s-4.14-9.86-8.8-12"/>
        <path class="cls-3" d="M50.56,379.16c-2.38,3.21-2.19,7.67-1.13,11.52s2.86,7.52,3.41,11.47a15.32,15.32,0,0,0,.92,4.56c.67,1.41,2.25,2.55,3.74,2.1a71.77,71.77,0,0,0,0-18.56,15.06,15.06,0,0,0-2.13-6.75c-1.36-2-3.84-3.32-6.14-2.69"/>
        <path class="cls-3" d="M263.6,474.05a13.39,13.39,0,0,0,1.4-14.5,58.4,58.4,0,0,0-4.1-5.69c-4.47-6.31-5.58-14.54-4.47-22.19a11.87,11.87,0,0,0,.13-4.69c-.4-1.52-1.77-2.93-3.33-2.77,2.64-2.22,6.68,1,7.43,4.35s0,7.07,1.4,10.21,4.54,4.81,7.23,6.81,5.29,5,4.74,8.28c-.26,1.56-1.22,3-1,4.6.16,1.09.9,2,1,3.14.31,2.79-3.09,4.31-4.83,6.52s-1.81,5.34-2.11,8.19c-.5,4.64-2,9.3-5.1,12.81s-7.88,5.7-12.47,4.89a5.7,5.7,0,0,1,1.39-6.42c.92-.81,2.12-1.34,2.77-2.37,1.51-2.43-1-5.32-3.12-7.19s-4.38-5.1-2.51-7.26c2.45-1.57,5.59.06,8.26,1.22s6.7,1.27,7.56-1.51"/>
        <path class="cls-3" d="M419.14,462.12c-5.28,1.88-11,3.78-16.38,2.18s-9.43-8.42-6.19-13c2.66-3.77,9.36-5.56,8.45-10.08-.39-1.93-2.17-3.2-3.67-4.47-7.38-6.26-10.27-16.17-15.15-24.53-9.59-16.44-27.73-28.17-31.94-46.73-2.3-10.13,0-20.67.05-31.06a70.36,70.36,0,0,0-7-30.79c2.09-1.44,4.76.81,6.06,3,8.36,14,4.58,31.63,4.65,47.93,0,2.64.19,5.47,1.78,7.58s5.09,3,6.87,1,2.25-6.62,4.89-5.8a3,3,0,0,1,1.46,1.24,9.58,9.58,0,0,1-2.69,13.1c-1.3.81-2.89,1.37-3.62,2.72-1.2,2.22.7,4.78,2.44,6.61a253.53,253.53,0,0,1,35,46.29c3.46,5.87,6.77,12.19,6.88,19,0,3.07-.54,6.25.49,9.14s4.68,5.16,7.19,3.39"/>
        <ellipse class="cls-3" cx="53.39" cy="444.9" rx="3.96" ry="9.03" transform="translate(-125.77 34.18) rotate(-16.72)"/>
        <circle class="cls-3" cx="123.91" cy="511.55" r="3.45"/>
        <circle class="cls-3" cx="136" cy="485.07" r="2.41"/>
        <ellipse class="cls-3" cx="324.98" cy="353.16" rx="3.51" ry="11.67"/>
        <circle class="cls-3" cx="309.43" cy="343.34" r="1.85"/>
        <ellipse class="cls-3" cx="11.3" cy="567.19" rx="6.57" ry="1.64"/>
        <ellipse class="cls-3" cx="14.59" cy="495.41" rx="3.28" ry="1.23"/>
        <ellipse class="cls-3" cx="30.11" cy="514.99" rx="3.64" ry="5.51" transform="translate(-463.1 363.8) rotate(-69.61)"/>
        <circle class="cls-3" cx="41.01" cy="511.55" r="3.45"/>
        <circle class="cls-3" cx="121.07" cy="494.8" r="0.61"/>
        <ellipse class="cls-3" cx="267.37" cy="432.46" rx="4.51" ry="8.97"/>
        <ellipse class="cls-3" cx="239.71" cy="444.9" rx="3.53"/>
        <ellipse class="cls-3" cx="263" cy="394.9" rx="1.88" ry="4.1" transform="translate(-132.58 132.92) rotate(-22.82)"/>
        <circle class="cls-3" cx="390.03" cy="199.55" r="6.81"/>
        <circle class="cls-3" cx="351.19" cy="199.95" r="1.63"/>
        <circle class="cls-3" cx="307.39" cy="166.28" r="2.46"/>
        <circle class="cls-3" cx="30.11" cy="603.67" r="8.3"/>
        <circle class="cls-3" cx="9.66" cy="413.83" r="4.92"/>
        <path class="cls-3" d="M341,381.79a5.12,5.12,0,0,0-2.67,6.84c.6,1.16,1.65,2.08,2.05,3.33.65,2-.59,4.1-1.23,6.12s-.12,5,2,5.18c1.4-3.5,2.71-7.12,2.84-10.89s-1.09-7.76-4-10.17"/>
        <g>
          <path class="cls-3" d="M71,542.24l-2.22.95A3.44,3.44,0,0,0,71,542.24Z"/>
          <path class="cls-3" d="M421.24,471.35c-11.52,4.87-18.73,20.28-31.18,19.09-11.28-1.07-16.06-15.53-14.17-26.71s7.66-21.88,6.62-33.17c-.44-4.78-2.06-9.78-.22-14.21,2.92-7,12.23-8.08,19.82-8.07-4.85-16-4.63-33.08-2.93-49.7a290.15,290.15,0,0,1,11-54.82c-11.89,5-16,19.61-17.12,32.44S392,363.15,383.67,373c-2.82,3.33-6.66,6.33-7.22,10.67-.29,2.24.39,4.47.72,6.7,1.69,11.3-5.23,21.9-11.82,31.23-3.45,4.89-7.58,10.2-13.51,11s-12.14-6.83-8-11.14A17,17,0,0,1,330.1,417a27.23,27.23,0,0,0,6.68-26.52C334,381.1,326.33,374.09,319,367.58c-2.67,2.38-1.2,6.93,1.31,9.47s5.92,4.35,7.51,7.55c4.47,9-8.27,16.94-10.89,26.62-1.12,4.13-.32,8.69-2,12.61-1.09,2.48-3.08,4.44-5,6.33l-14.42,14c.72-7.65-5.94-15.19-13.62-15.42,6.09,15.32,1.73,32.87-5.46,47.71s-17.12,28.34-22.94,43.76c-2,5.26-4.29,11.5-9.73,12.9a22.43,22.43,0,0,1,4,26.65,15.49,15.49,0,0,1-12.54-7.62l-2.47,5.9-9-.12a80.18,80.18,0,0,0-10.63-36.4,4.18,4.18,0,0,0-5.16,4.34,116.86,116.86,0,0,1-6.27,58.4,6.49,6.49,0,0,1-2.06,3.22c-1.51,1-3.54.67-5.31.2a95.35,95.35,0,0,1-59.13-46.77c-2.24-4.21-4.71-9.05-9.32-10.24l-2.88,11.43c-5.66-18.53-31.07-24.17-39-41.84-2.63-5.85-3.25-12.86-7.77-17.41-3.24-3.27-8.31-5-9.9-9.37-.89-2.42-.44-5.13-1-7.65-1.58-7.47-10.39-10.39-17.65-12.74S32,445.3,33.4,437.81a6.51,6.51,0,0,0-6.31,3.93A7.16,7.16,0,0,1,21,436a9.32,9.32,0,0,0-6.93,1.93,232.36,232.36,0,0,0,42.44,30.73c2.58,8.16,1,17,1,25.53s2.36,18.22,9.84,22.39c4.68,2.61,12.19,6.36,9,10.64-1,1.3-2.69,1.77-4.28,2.1a71.38,71.38,0,0,1-37.81-2.39c-12.1-4.19-25.42-11.65-36.74-5.66A267.44,267.44,0,0,0,62,555.38c-2.31,6.35,5.58,11.87,12.33,12.36s14.18-1.11,19.8,2.65A5.9,5.9,0,0,1,96.45,573c1.18,3.09-2,6.26-5.16,7.11s-6.67.39-9.79,1.49c-4.44,1.56-7.41,6-11.81,7.61-3.64,1.37-7.69.67-11.52,0l-40.05-7.5c-3.05,2.42.42,7.53,4.25,8.22s8-.59,11.57.95c3,1.29,4.92,4.31,7.68,6.07,4.13,2.64,9.44,2.13,14.31,1.52l40.26-5c5-.62,10.17-1.22,14.94.35s9,6,8.62,11c-9.54-3.52-16,9.58-24.36,15.38-7.61,5.3-17.76,4.35-27,3.19-1.74,5.44,4.26,10.74,10,10.92s10.94-2.87,16.18-5.17a67.25,67.25,0,0,1,47.49-2.32c2.45.8,5,1.87,6.46,4,3.34,4.92-1.58,11.72-7.25,13.52s-11.88.82-17.65,2.27a6.27,6.27,0,0,0-3.27,1.69c-2.55,2.89,1.08,7.58,4.92,8s7.51-1.52,11.34-2,8.68,1.74,8.43,5.59l-17.68,5.64,46.75,17.25c10.08,3.72,20.57,7.5,31.27,6.54,10.95-1,20.89-6.82,31.7-8.8,11.45-2.1,23.18.22,34.76,1.42a179.29,179.29,0,0,0,52.06-2.26c9.23-1.77,19.35-5.06,23.67-13.4,4.46-8.61.88-19.23-4.3-27.42s-12-15.61-14.76-24.92c-8.89-1.3-15.16-11.77-12.09-20.22,2.75-7.57,10.71-11.59,17.18-16.38a58.66,58.66,0,0,0,20.06-26.92c6.22-17.08,4.21-35.92,2.13-54-3.06,12.2-.38,25.18-2.64,37.55-3.42,18.73-17.45,33.46-30.85,47-3.26,3.29-6.73,6.71-11.21,7.9s-10.15-.85-11.25-5.34c-.62-2.56.33-5.21,1.27-7.67l10.22-26.76a8.83,8.83,0,0,1-7.43-1.77,48.92,48.92,0,0,0,8.08-23l-18.39,17.16c-2.9,2.71-5.85,5.48-7.73,9-3.61,6.73-3,15.72-8.54,21-2.11-1.72-3-4.47-3.84-7.07-2.42-7.69-4.86-15.61-4.17-23.64s5.31-16.27,13-18.75c3.49-1.13,7.36-1,10.65-2.65,6.61-3.27,8.19-12.1,7.11-19.4s-4-14.48-3.1-21.8,7.87-14.73,14.83-12.29c4.31,1.51,6.67,6,9.81,9.32s9.12,5.33,11.9,1.71c-6.73-4.82-12-13.3-9.49-21.19s15.6-10.68,18.95-3.11c1.22,2.77,1,6.29,3.19,8.38,2.45,2.34,6.79,1.36,9-1.23s2.69-6.18,2.73-9.57c7.17-2.39,14.52,4.81,15.63,12.29s-1.87,14.86-4,22.12-3.28,15.65,1,21.91c1.31,1.93,3.44,3.66,5.74,3.27-2.86,1.68-2.58,6.09-.71,8.83s4.81,4.58,6.81,7.23c6.88,9.16-.25,21.94-7.25,31l-2.79,3.62c7.52-5.35,19.82-.83,22.09,8.1l-36,19c-2.81,1.48-5.94,3.39-6.44,6.52-.32,2,.56,4,1.25,5.88a34.83,34.83,0,0,1-8.4,36.07c6.87-1.41,8.5-10.21,10-17.07a56.93,56.93,0,0,1,29.19-38.12c7.87-4,18-7.83,19.24-16.6.52-3.79-.92-7.54-2.34-11.09L393,533.64c-1.64-4.12-3.31-8.37-3.26-12.8C389.94,500.49,423.8,491.55,421.24,471.35ZM71,510.74a13.07,13.07,0,0,1-2-4.16,41,41,0,0,1-1.86-15.72l.07,1.78c5.72-.25,10.1,5.17,12.13,10.52s2.84,11.34,6.32,15.89c2.89,3.77,7.73,7.15,7,11.84-6.26-3.48-9.07-11.14-14.92-15.27C75.45,514,72.72,512.93,71,510.74Zm22.47,48.14a4.56,4.56,0,0,1-1.09,2.3,5,5,0,0,1-3,1c-3.09.36-6.3.71-9.27-.2s-5.69-3.45-5.79-6.56c-.06-1.77.71-3.6.14-5.27-.82-2.39-3.77-3.12-6.27-3.49l-21.82-3.24c-2-.29-4.59-1.49-4-3.41q14.38.64,28.7,2.12a3.52,3.52,0,0,0,1.11-2.64c2.06-1.35,4.55,1.3,7,1.29,3.08,0,4.64-4,7.59-4.94,2.46-.77,5.14,1,6.31,3.26s1.23,5,1.25,7.55A50.1,50.1,0,0,1,93.47,558.88Zm48.61,60.93c-2.37-.36-4.79.18-7.18.08a27.24,27.24,0,0,1-6.14-1.2l-7.83-2.16a46.31,46.31,0,0,1,20-6.29l-2.46,1.22,3.64-1.59c-2.72-2.64-7.29-2.49-10.08-5.06-2.26-2.09-2.78-5.39-4-8.24a17.25,17.25,0,0,0-7.39-8.31c-1.76-1-3.71-1.68-5.28-2.95s-2.72-3.37-2.1-5.29c2.92-2,7-.74,9.66,1.57s4.3,5.52,6.44,8.3,5.16,5.31,8.67,5.29c2.6,0,5-1.44,7.54-1.84,3-.47,6,.46,8.85,1.38a5.33,5.33,0,0,1,4.75,6c.26,4,.08,8.8-3.39,10.74-1.6.9-3.78,1.05-4.74,2.62-1.57,2.56,1.71,5.33,4.48,6.49s6.19,3.58,5,6.32C154,628.71,148.75,620.83,142.08,619.81Zm70.09,66.41a2.3,2.3,0,0,1-1.86.87c-7.37.77-14.3-3.23-21.51-5-4.58-1.11-9.37-1.32-13.82-2.87s-8.72-4.9-9.47-9.55l-.44,1.79c-.52-5.88-8.16-8.64-9.94-14.27a7.91,7.91,0,0,1,13.07-8c2.8,2.74,3.51,7.45,7,9.27,2.73,1.44,6,.47,9.13.3,6.63-.36,13,3.3,17.43,8.23s7.34,11,10.16,17.06A2.47,2.47,0,0,1,212.16,686.22Zm6.57-78.37c-.58,2.87-1.8,6-4.54,7.08-1.86.71-3.94.23-5.89-.16-5.88-1.16-12.21-1.37-17.66,1.13s-9.71,8.27-9,14.22A53.09,53.09,0,0,1,165,598.48c-.36-2.6-.55-5.31-1.84-7.59-4.12-7.3-15.72-5.47-22-11.08-2.74-2.47-4.19-6.2-7.14-8.42-5.66-4.24-14-1.2-20.56-3.88-5.51-2.26-8.7-8.3-9.28-14.23-.48-5,.56-10,1.84-14.86-.24-.34-.48-.68-.7-1l1.42-1.68q-.37,1.35-.72,2.71a28.31,28.31,0,0,0,20.57,11.74c1.63.13,3.42.16,4.68,1.2,3.1,2.55.16,7.82,1.73,11.51.8,1.88,2.65,3.05,4.39,4.11l40.29,24.39c4.27,2.59,8.66,5.22,13.57,6.12,10.31,1.9,21.46-5.4,23.85-15.61A40.14,40.14,0,0,1,218.74,607.85ZM292.9,505.26a10.73,10.73,0,0,1-2.89,4.46c-3.71,4-9.29,7.85-14.12,5.39-1.91-2.68,1.49-5.82,3.16-8.66s1.57-6.36,1.83-9.66,1.18-7,4-8.66l.55-2.6q3,6.13,5.87,12.28C292.4,500.15,293.54,502.74,292.9,505.26Z"/>
        </g>
        <path class="cls-3" d="M87.83,459.15a7,7,0,0,0-1.15,10c1.19,1.33,2.9,2.17,3.87,3.68,1.57,2.44.65,5.62.5,8.51s1.57,6.58,4.44,6.14c.64-5.11,1.1-10.34,0-15.36s-4.14-9.86-8.8-12"/>
        <path class="cls-3" d="M50.56,379.16c-2.38,3.21-2.19,7.67-1.13,11.52s2.86,7.52,3.41,11.47a15.32,15.32,0,0,0,.92,4.56c.67,1.41,2.25,2.55,3.74,2.1a71.77,71.77,0,0,0,0-18.56,15.06,15.06,0,0,0-2.13-6.75c-1.36-2-3.84-3.32-6.14-2.69"/>
        <ellipse class="cls-3" cx="53.39" cy="444.9" rx="3.96" ry="9.03" transform="translate(-125.77 34.18) rotate(-16.72)"/>
        <circle class="cls-3" cx="123.91" cy="511.55" r="3.45"/>
        <circle class="cls-3" cx="136" cy="485.07" r="2.41"/>
        <ellipse class="cls-3" cx="11.3" cy="567.19" rx="6.57" ry="1.64"/>
        <ellipse class="cls-3" cx="14.59" cy="495.41" rx="3.28" ry="1.23"/>
        <ellipse class="cls-3" cx="30.11" cy="514.99" rx="3.64" ry="5.51" transform="translate(-463.1 363.8) rotate(-69.61)"/>
        <circle class="cls-3" cx="41.01" cy="511.55" r="3.45"/>
        <circle class="cls-3" cx="121.07" cy="494.8" r="0.61"/>
        <circle class="cls-3" cx="9.66" cy="413.83" r="4.92"/>
        <path class="cls-3" d="M330.92,34.83c-.61,7.85,3.56,10.91,8.35,6.11,2.26-2.27,4.52-5.9,6.75-7.59,3.63-2.74,5.82.47,8.41,1.82s7.51-1.3,9.55-8c-4.24-3.25-8.75-6.13-14.44-5.26s-12.78,6.05-18.81,16"/>
        <path class="cls-3" d="M269.26,26.56c-2.38,3.21-2.19,7.67-1.13,11.52s2.86,7.52,3.41,11.47a15.32,15.32,0,0,0,.92,4.56c.67,1.41,2.25,2.55,3.74,2.1a71.77,71.77,0,0,0,0-18.56,15.06,15.06,0,0,0-2.13-6.75c-1.36-2-3.84-3.32-6.14-2.69"/>
        <ellipse class="cls-3" cx="272.09" cy="92.31" rx="3.96" ry="9.03" transform="translate(-15.05 82.2) rotate(-16.72)"/>
        <circle class="cls-3" cx="343.91" cy="335.55" r="3.45"/>
        <circle class="cls-3" cx="356" cy="309.07" r="2.41"/>
        <ellipse class="cls-3" cx="231.3" cy="391.19" rx="6.57" ry="1.64"/>
        <ellipse class="cls-3" cx="233.28" cy="142.82" rx="3.28" ry="1.23"/>
        <ellipse class="cls-3" cx="309.85" cy="394.9" rx="3.64" ry="5.51" transform="translate(-168.26 547.75) rotate(-69.61)"/>
        <circle class="cls-3" cx="259.71" cy="158.95" r="3.45"/>
        <circle class="cls-3" cx="341.07" cy="318.8" r="0.61"/>
        <circle class="cls-3" cx="228.36" cy="61.23" r="4.92"/>
        <path class="cls-3" d="M84.56-101.84C98-95,117.44-101,126.2-88.29c7.93,11.56-1.22,28.14-12.7,35.67s-25.59,11-34.86,21.4c-3.92,4.4-7.11,10.11-12.53,12.06-8.56,3.08-16.86-4.83-22.84-12C32.81-13.26,17.37.79,1.18,13A341.58,341.58,0,0,1-56.49,48.35c13.8,7.11,30.15-1.21,42.49-10.87S10.93,16.06,26.27,15.73c5.2-.11,10.91,1,15.22-2.07,2.22-1.6,3.69-4.09,5.42-6.27C55.68-3.63,70.6-5.93,84.14-7.48c7.09-.81,15.09-1.34,20.47,3.6s3.46,17.17-3.66,16.84a22,22,0,0,1,6.87,16.71c-11.38-.75-22.94,5.55-29,15.8C72.71,56,72.46,69,72.4,81.36c4.23.54,7.13-4.64,7.42-9.14s-.78-9.22.83-13.39c4.5-11.71,21.66-6.31,32.37-11.91,4.57-2.39,8-6.95,12.87-8.59,3.08-1,6.4-.79,9.62-.52l23.86,2c-7.41,5.7-8.9,18.29-3,25.74,8.89-18.54,28-29.05,46.93-34.63s38.81-7.45,57.19-14.8c6.26-2.51,13.66-5.54,19.2-1.56C280,2.33,289-9,300.32-11.48A20.43,20.43,0,0,1,303.4,6.73l7.22-2.59,7,8.6a102,102,0,0,0-24.15,40.42c1.27,3.1,5.87,3.83,7.94,1.25a139.62,139.62,0,0,1,57.12-42.77,7.36,7.36,0,0,1,4.51-.74c2.12.56,3.39,2.79,4.36,4.85a126.59,126.59,0,0,1,4.82,94.91c-2,5.63-4.38,12-1.81,17.36l12.49-6.81c-12.1,20.81,2.9,49.54-6.63,71.79-3.15,7.36-8.92,13.8-9.43,21.86-.37,5.8,2,12.07-.57,17.18-1.46,2.86-4.23,4.7-6.07,7.31-5.42,7.72-1.1,18.49,2.53,27.31s5.4,21.29-2.43,26.17a7.51,7.51,0,0,0,8.48,2.69,9.45,9.45,0,0,1-.36,10.55A11.07,11.07,0,0,0,375.6,311a309.42,309.42,0,0,0-6-65.75c5.27-9.24,14.39-15.08,22-22.21s14.42-17.43,12.26-28c-1.35-6.6-3.92-16.83,2.44-17.35,1.93-.16,3.7,1.06,5.25,2.29a89.49,89.49,0,0,1,27.67,37.74c5.8,14.94,9.62,33.75,23.9,39.45a353.49,353.49,0,0,0-20.35-89.45c7.5-3.11,6.21-15.18,1.33-22S432,133.32,430.92,124.88a7.84,7.84,0,0,1,.52-4.44c1.83-3.69,7.14-3.37,10.42-1s5.6,6,9,8c4.89,2.9,11.16,2,16.12,4.82,4.09,2.3,6.66,6.72,9,10.93l24.86,44.13c4.57.87,6.4-6.68,4-10.88s-6.83-7.06-8.28-11.73c-1.22-3.93,0-8.24-.63-12.33-.9-6.1-5.54-10.7-9.91-14.8l-36.2-33.89c-4.48-4.2-9.11-8.59-11.46-14.42s-1.73-13.51,3-17.33c4.37,12,21.18,7.16,32.95,10.2,10.73,2.78,17.89,13.17,24.1,22.83,6.23-2.9,6.24-13,1.9-18.53s-11.19-8-17.37-11c-17.52-8.59-31.87-24.2-39.5-43-1.22-3-2.28-6.3-1.52-9.45,1.76-7.26,11.72-8.28,17.8-4.43s10.09,10.56,15.94,14.79a7.24,7.24,0,0,0,4.09,1.69c4.59,0,5.92-7.34,3.25-11.3s-7.28-5.84-10.7-9.08S467.14,5,470.77,2l19,12L468.32-44.54c-4.62-12.63-9.51-25.7-18.8-35C440-89.1,427-93.62,416.68-102.19c-10.9-9.08-18.07-22.1-26.13-34a221,221,0,0,0-43.05-47.34c-8.85-7.25-19.77-14.08-30.63-11.2-11.21,3-17.88,15.2-21.11,26.94s-4.46,24.4-10.64,34.74c5.85,9.49,1.43,24.15-8.54,28.3-8.92,3.71-18.8-.46-28.18-2.58a66.3,66.3,0,0,0-39.86,3.49c-20.17,8.37-35.42,26-49.91,43,13.31-7.28,22.8-20.63,35.63-28.82,19.43-12.39,43.66-11.41,66.31-10,5.51.33,11.3.77,15.89,4s7.25,10.31,4.09,15.09c-1.79,2.72-4.92,4-7.85,5.2l-32,12.66a11.33,11.33,0,0,1,4.27,8.5,56.56,56.56,0,0,0-26.95,11.56l29.83,3.07c4.71.48,9.51,1,14.12-.18,8.86-2.21,16.42-10.27,25.49-9.43.12,3.43-1.61,6.59-3.29,9.53-5,8.69-10.12,17.62-17.84,23.66s-18.72,8.55-27,3.38c-3.76-2.36-6.71-6.11-10.76-7.86-8.13-3.52-17.27,2.35-22.94,9.46s-9.8,15.83-17,21.12S169.29,14.86,166,6.25c-2-5.33.1-11.31.6-17s-2.42-13.07-7.85-12.67c1,10.39-2.43,22.43-11.45,26.65s-21.84-5.84-17.71-15.32c1.51-3.47,4.84-6.19,5-10,.16-4.26-4.14-7.55-8.17-7.46s-7.64,2.62-10.7,5.39c-7.79-4.79-7.15-17.75-1.34-25s14.76-10.63,22.92-14.66,16.56-10,18.82-19.18c.7-2.84.56-6.31-1.6-8.15,3.75,1.3,7.48-2.64,8.45-6.69s.3-8.37,1.09-12.47c2.76-14.15,19.81-18.06,33.43-19l5.43-.38c-10.7-2.65-16.36-18-10.17-27.65L238-139.2c3.54,1.42,7.71,2.79,10.9.65,2-1.37,3.11-3.84,4.27-6.08,7.47-14.44,23.35-23.49,38.86-22.14-6.68-5.33-15.82.48-23.11,4.81a64.52,64.52,0,0,1-57.07,4.2c-9.82-4.07-21.21-10.52-30-4.34-3.79,2.67-6,7.16-8.06,11.46L162.51-127c-2.38,5-4.87,10.11-8.87,13.75C135.27-96.54,100.59-121.11,84.56-101.84Zm311.26,298.3a17,17,0,0,1-2.13,5.37,50.88,50.88,0,0,1-12.58,14.87l1.54-1.55c-4.74-5.2-3.35-13.86-.16-20.25s7.89-12.14,9.21-19.23c1.09-5.87.29-13.27,5.07-16.48,1.82,8.82-2.8,17.87-1.89,26.84C395.23,189.53,396.41,193,395.82,196.46Zm25.31-61.39a5.21,5.21,0,0,1,2.92-.88,5.91,5.91,0,0,1,3.26,2c2.76,2.62,5.6,5.36,7.13,8.94s1.41,8.26-1.3,11c-1.54,1.53-3.78,2.32-4.82,4.27-1.49,2.76.18,6.17,1.82,8.84l14.3,23.33c1.3,2.12,2.28,5.58.11,6.63Q433.79,185,423.82,170.2a4.06,4.06,0,0,0-3.23,1.15c-2.83-.82-2.42-5.39-4.38-7.7-2.45-2.9-7.26-1-10.4-3.05-2.62-1.68-3.18-5.67-2.06-8.69s3.48-5.31,5.76-7.48C413.14,141,416.81,137.48,421.13,135.07Zm16.12-96.78c1.54,2.54,3.93,4.38,5.74,6.72a34.85,34.85,0,0,1,3.77,6.81L451,61a54.7,54.7,0,0,1-21.41-13.69l3,1.31-4.29-2.12c-.22,4.78,3.52,9,3.43,13.75-.08,3.88-2.63,7.13-4.24,10.62a22.89,22.89,0,0,0-1.6,13.92c.5,2.49,1.42,4.9,1.53,7.45s-.86,5.39-3.07,6.4c-4-1.13-6.2-6-6.2-10.44s1.54-8.66,2.34-13,.69-9.31-2.11-12.6c-2.06-2.44-5.21-3.5-7.59-5.59-2.77-2.43-4.3-6-5.75-9.52-.7-1.68-1.41-3.5-1.05-5.3A9,9,0,0,1,406.66,38c3.33-3.56,7.8-7.42,12.26-5.75,2.06.77,3.92,2.7,6.08,2.3,3.53-.65,3.41-6.06,2.26-9.65s-1.68-8.83,1.74-10C435.78,19.57,432.9,31.13,437.25,38.29Zm4.1-121.65a2.67,2.67,0,0,1,2.25,1C450.1-76,452-66.11,456.1-57.84c2.62,5.25,6.21,10,8.33,15.46s2.49,12.33-1.07,16.92l2-1.07c-4.84,5.4-1.29,14.91-4.91,21.3a9.47,9.47,0,0,1-10.83,4.4,10.26,10.26,0,0,1-6.66-10.05c.24-4.93,3.89-9.53,2.79-14.33-.87-3.79-4.34-6.1-6.93-8.88-5.55-6-7.28-15-6.39-23.35s4.08-16.15,7.23-23.84C440-82.16,440.46-83.16,441.35-83.36ZM366.15-24.21c3-1.84,6.82-3.33,9.91-1.61,2.1,1.17,3.31,3.53,4.5,5.7,3.6,6.53,8.4,12.69,14.93,15.75s15,2.29,19.77-3.38A69.23,69.23,0,0,1,400.1,34.37c-2,2.5-4.31,4.95-5.33,8.07-3.28,10,7.5,19.43,7.4,30,0,4.66-2.24,9.13-1.89,13.77.67,8.88,10,14.25,12.74,22.67,2.33,7.09-.56,15.15-5.4,20.64-4.08,4.63-9.36,7.79-14.73,10.65-.11.51-.23,1-.37,1.52l-2.62.05,3-1.58a37.35,37.35,0,0,0-5.73-29.24c-1.17-1.65-2.55-3.36-2.62-5.43-.17-5.06,6.86-6.67,8.92-11.24,1-2.32.64-5,.21-7.58l-10-58.43c-1.06-6.19-2.17-12.54-5.23-17.94C372-1,356.74-5.47,345.74.78A49.9,49.9,0,0,1,366.15-24.21ZM216-8.77a12.15,12.15,0,0,1,6.27-1c6.46.21,14.34,2.24,16,8.86-.89,4-6.37,3.45-10.23,4.24s-6.92,3.82-10.07,6.33S210.8,14.36,207,13.1l-2.75,1.65Q207.43,6.85,210.63-1C211.85-4,213.27-7.28,216-8.77Z"/>
        <path class="cls-3" d="M336.46,223.58c4.37,1.12,9.28-2.5,9.8-7.22.25-2.23-.34-4.56.24-6.72.95-3.52,4.51-5.3,7.21-7.57s4.65-7,2-9.32c-5.07,3.66-10.11,7.59-13.7,12.86s-5.55,12.14-3.82,18.36"/>
        <path class="cls-3" d="M294.35,325.53c4.74-.43,8.57-4.33,11.19-8.54s4.47-9,7.56-12.79c1.21-1.49,2.62-2.86,3.35-4.67s.51-4.25-1.07-5.28a87.25,87.25,0,0,0-16.58,15.48c-1.87,2.26-3.68,4.72-4.35,7.64s.06,6.4,2.44,8"/>
        <path class="cls-3" d="M346.86,265.38c3.14-5.34,7.47-8.49,9.69-7s1.47,7-1.67,12.3-7.47,8.49-9.69,7S343.72,270.72,346.86,265.38Z"/>
        <path class="cls-3" d="M352.12,142.51a4,4,0,0,1,5.8.38,4.52,4.52,0,0,1-.36,6.13,4,4,0,0,1-5.8-.38A4.52,4.52,0,0,1,352.12,142.51Z"/>
        <path class="cls-3" d="M319.74,154.13a2.77,2.77,0,0,1,4.06.27,3.17,3.17,0,0,1-.25,4.29,2.77,2.77,0,0,1-4.06-.27A3.17,3.17,0,0,1,319.74,154.13Z"/>
        <path class="cls-3" d="M143,71.63c.81-.76,3.78,1.41,6.64,4.84s4.52,6.82,3.71,7.58-3.78-1.41-6.64-4.84S142.15,72.38,143,71.63Z"/>
        <path class="cls-3" d="M404.11,238.51c.61-.57,2.26.36,3.69,2.08s2.1,3.56,1.49,4.13-2.26-.36-3.69-2.08S403.5,239.08,404.11,238.51Z"/>
        <path class="cls-3" d="M407.34,263c-1.3-3.58-.54-7.22,1.69-8.13s5.1,1.26,6.4,4.84.54,7.22-1.69,8.13S408.64,266.56,407.34,263Z"/>
        <path class="cls-3" d="M417.46,220.88a4,4,0,0,1,5.8.38,4.52,4.52,0,0,1-.36,6.13,4,4,0,0,1-5.8-.38A4.52,4.52,0,0,1,417.46,220.88Z"/>
        <path class="cls-3" d="M341.62,161.83a.7.7,0,0,1,1,.07.81.81,0,0,1-.06,1.09.7.7,0,0,1-1-.07A.81.81,0,0,1,341.62,161.83Z"/>
        <path class="cls-3" d="M353.69,330.63a5.65,5.65,0,0,1,8.28.55,6.46,6.46,0,0,1-.52,8.76,5.65,5.65,0,0,1-8.28-.55A6.46,6.46,0,0,1,353.69,330.63Z"/>
        <g>
          <path class="cls-3" d="M382.3,187.6l-.18.05.3.24Z"/>
          <path class="cls-3" d="M399.56,291.32l1.24-.55A1.46,1.46,0,0,0,399.56,291.32Z"/>
          <path class="cls-3" d="M397.8,301.55A25.65,25.65,0,0,1,417.08,307c5.85,4.47,12,11.67,18.42,7.94a147.41,147.41,0,0,0-30.05-33.25c1.79-4.85-1.76-10-5.19-11s-7.42-.44-10-4a5,5,0,0,1-1-2.34,4.87,4.87,0,0,1,3.33-5.19c1.73-.37,3.48.31,5.19-.27,2.44-.83,4.38-4.06,6.81-5,2-.75,4,.18,5.94,1.11l20,9.73c1.8-1.64.5-6-1.42-7s-4.18-.27-5.88-1.84c-1.43-1.31-2.13-3.9-3.39-5.56-1.88-2.49-4.67-2.58-7.24-2.55l-21.24.23c-2.63,0-5.36,0-7.67-1.68s-4.07-5.63-3.41-9.59c4.59,3.7,9.17-6.15,14-10,4.42-3.52,9.57-1.81,14.21,0,1.41-4.18-1.18-9-4.11-9.64s-5.92,1.27-8.83,2.61a23.85,23.85,0,0,1-24.71-2.59,7.19,7.19,0,0,1-3-3.8c-1.26-4.24,1.92-9.2,5-10.11s6.21.46,9.32-.16a2.88,2.88,0,0,0,1.85-1c1.59-2.07.16-6.15-1.78-6.82s-4,.51-6,.51-4.31-2.2-3.82-5.25l9.65-2.85-22.48-18.13c-4.85-3.91-9.9-7.9-15.51-8.14a16.2,16.2,0,0,0-4.24.44l-.12,6.35a4.75,4.75,0,0,1-.94,3.35c-1,1-2.77.89-4.1,1.54-2.88,1.41-2.53,5.85-.52,8.34s5.06,4,7.14,6.41a11.32,11.32,0,0,1,2.67,7.58,8.55,8.55,0,0,1-3,6.51,5.8,5.8,0,0,1-6.87.29c-1.24-.95-2.91-2.53-4-1.38s.66,2.65,1.3,4c1,2.27-1.26,4.93-3.74,5.27s-4.88-.83-7.16-1.87-5.45-1.84-7.06.13c-1,1.23-.89,3-.65,4.57.95,6.16,3,12.15,3.53,18.36s-.62,13-5.1,17.35a1.07,1.07,0,0,1-.6.36,1.11,1.11,0,0,1-.69-.26c-5.22-3.46-10.86-7.52-12.19-13.64-1-4.74.8-9.58,1.27-14.4A25.79,25.79,0,0,0,298,210.41c-.37-1.16-1.55-2.55-2.53-1.81a75,75,0,0,0-3.4,13.08c-8.68-6.54-11.51-19-8.42-29.44.68-2.27,1.6-4.51,1.71-6.88a17.12,17.12,0,0,0-1.55-7c-1.64-4.1-3.78-8-5.18-12.19a25.49,25.49,0,0,1-1.37-7.16,14,14,0,0,0-8.68,7.5c-3.11,6.46-2.27,15.26-.37,22.28S273,202.35,273.49,210c4.46,1.87,6.71,10.81,4.33,17.27-2.13,5.78-6.62,8.25-10.41,11.47-5.34,4.54-9.88,11.46-12.89,19.6-4.82,13.05-5.57,28.27-6.2,42.87,2.73-9.45,2.58-20.05,4.91-29.71,3.53-14.63,12.16-25.07,20.35-34.62,2-2.32,4.11-4.73,6.53-5.26s5.16,1.62,5.3,5.31a15.43,15.43,0,0,1-1.38,6l-7.8,20.4a3.7,3.7,0,0,1,3.67,2.11,52.11,52.11,0,0,0-6.34,17.62l11.1-12a27.15,27.15,0,0,0,4.83-6.44c2.5-5,3-12.26,6.39-15.95.93,1.57,1.14,3.85,1.31,6,.52,6.36,1,12.91-.08,19.25s-4.27,12.49-8.46,13.75c-1.91.58-3.89.12-5.74,1.12-3.72,2-5.37,8.89-5.5,14.81s.68,11.92-.46,17.68-5.45,11-8.81,8.42c-2.08-1.61-2.87-5.41-4.18-8.35s-4.2-5.11-6-2.47c3,4.47,4.93,11.73,2.89,17.8s-9.06,7.07-10.07.71c-.37-2.32.08-5.12-.85-7-1-2.09-3.37-1.72-4.75.14s-2,4.68-2.31,7.38c-3.93,1.24-7-5.2-6.9-11.27s2.37-11.68,4.15-17.27,3.17-12.18,1.57-17.57c-.49-1.66-1.43-3.24-2.65-3.15,1.63-1.07,1.91-4.62,1.2-7s-2.05-4.1-2.83-6.4c-2.69-7.95,2.2-17.48,6.67-24.07l1.78-2.63c-4.38,3.56-10.3-1.19-10.63-8.53l20.37-11.76c1.59-.92,3.38-2.15,3.94-4.6a14.7,14.7,0,0,0-.09-4.8c-1.13-10.21,2-21.65,7.74-28-3.68.48-5.35,7.35-6.75,12.69-3.32,12.58-10.36,23-18.66,27.69-4.44,2.5-10,4.56-11.49,11.45a27,27,0,0,0,.16,9.06l2.17,16.27a40.89,40.89,0,0,1,.47,10.52c-2,16.22-20.36,20.19-20.95,36.54,6.4-2.81,11.58-14.43,17.88-12.32,5.72,1.91,6.82,13.89,4.78,22.63s-6,16.74-6.55,25.84c-.23,3.85.14,8-1.23,11.36-2.17,5.32-7.07,5.3-11,4.59,1,13.21-.74,26.83-3.18,39.93A337.46,337.46,0,0,1,202,449.92c6.6-2.84,10.11-14.15,11.9-24.29s3.11-21.39,8.33-28.46c1.77-2.4,4-4.43,4.73-7.84a30.45,30.45,0,0,0,.26-5.41c.2-9.17,4.77-17,9-23.82,2.24-3.58,4.87-7.43,8-7.51s5.62,6.58,3.07,9.63c2.61-.07,5.13,1.76,6.68,4.83-4.13,4.77-6.5,13-5.95,20.53.57,7.74,3.84,14,7,19.93,1.6-1.65,1.27-5.41.22-7.68s-2.64-4-3.16-6.72c-1.46-7.58,5.87-12.75,8.13-20.23,1-3.19,1-6.91,2.24-9.87a16.48,16.48,0,0,1,3.19-4.58l8.76-9.81c-1.1,6,1.63,12.68,5.57,13.58-1.7-12.79,2.21-26.39,7.32-37.56s11.51-21,16-32.77c1.52-4,3.3-8.78,6.24-9.39-3-6-2.82-15.37.45-21.64,2.61.65,4.86,3.48,5.75,7.25l1.83-4.48,4.63.94a94.67,94.67,0,0,0,2,30c1.24.9,3-.83,3.07-3a139.65,139.65,0,0,1,8.75-46,5.63,5.63,0,0,1,1.37-2.38c.88-.69,1.89-.2,2.76.34,12.28,7.58,22,23.5,26.08,42.84.76,3.56,1.57,7.66,3.84,9l2.57-8.85c1.17,15.32,13.75,22.19,16.18,37,.8,4.91.46,10.56,2.36,14.62,1.36,2.91,3.81,4.8,4.22,8.4.23,2-.26,4.13-.22,6.2.11,6.1,4.38,9.26,7.9,11.81s7.34,7.66,5.89,13.51c1.35.4,2.88-.68,3.63-2.54,1.5.55,2.61,2.76,2.59,5.16a3.57,3.57,0,0,0,3.76-.9,154,154,0,0,0-19-28.48c-.56-6.75,1.1-13.63,1.91-20.46s.5-14.76-3-18.79c-2.17-2.52-5.69-6.21-3.62-9.33A3.11,3.11,0,0,1,397.8,301.55Zm-108.95-1.1c-1.13,2.12-1.41,4.93-1.85,7.54s-1.26,5.44-2.89,6.53l-.53,2q-.95-5.17-1.87-10.35a13.67,13.67,0,0,1-.12-6.09,9.3,9.3,0,0,1,1.91-3.29c2.29-2.81,5.53-5.4,7.8-3C292,296.15,290,298.34,288.85,300.45Zm81.35-77.66c1.19.51,2.49.31,3.71.6a10.57,10.57,0,0,1,3.06,1.53l3.84,2.46a17.72,17.72,0,0,1-10.93,3.15l1.38-.74-2,.92c1.15,2.36,3.53,2.67,4.72,5,1,1.88.92,4.56,1.27,6.94a14.66,14.66,0,0,0,3,7.32,20.8,20.8,0,0,1,2.44,2.84,5.63,5.63,0,0,1,.58,4.42c-1.69,1.28-3.69-.06-4.83-2.16s-1.7-4.8-2.54-7.22-2.16-4.72-4-5c-1.34-.23-2.7.69-4.06.77-1.58.1-3-.93-4.44-1.93a4.08,4.08,0,0,1-1.73-2,8.43,8.43,0,0,1-.16-3.17c.24-3.19.79-7,2.76-8.25.91-.56,2.05-.48,2.69-1.65,1.05-1.9-.38-4.41-1.7-5.59s-2.85-3.43-2-5.5C364.88,214.57,366.86,221.35,370.2,222.79Zm-26.32-43.2c-1.83-4.35-2.74-9.5-3.63-14.56a3,3,0,0,1,.07-1.78,1,1,0,0,1,1-.52c3.88.07,7.07,3.91,10.62,6,2.26,1.31,4.71,1.93,6.86,3.58a10.63,10.63,0,0,1,4,8.51l.4-1.39c-.28,4.74,3.39,7.65,3.78,12.31.23,2.76-.9,5.78-2.61,7s-3.83.42-4.89-1.77c-1.19-2.45-1.11-6.27-2.72-8-1.27-1.4-3.07-.94-4.68-1.09C348.65,187.45,345.72,183.94,343.89,179.59Zm39.53,99.81a51.11,51.11,0,0,1-2.35,11.68c.09.29.18.59.27.89l-.89,1.21.63-2.09c-1.8-5.75-5.37-10-9.5-11.29a3.41,3.41,0,0,1-2.3-1.4c-1.36-2.32.65-6.25.19-9.35a7.62,7.62,0,0,0-1.88-3.69l-18.48-23.22c-2-2.46-4-5-6.42-6.15-5.14-2.48-11.58,2.31-13.78,10.23a48.76,48.76,0,0,1,.63-21c.57-2.24,1.5-4.65,3-5.23,1-.39,2.05.18,3,.67,2.92,1.48,6.17,2.23,9.22.75s5.79-5.69,6-10.51c3.86,7.38,5.87,17,5.59,26.8a25.29,25.29,0,0,0,.23,6.23c1.43,6.21,7.59,5.83,10.28,10.89,1.18,2.23,1.57,5.34,2.89,7.38,2.52,3.91,7.12,2.26,10.24,5C382.61,269.49,383.69,274.62,383.42,279.4Zm13.15,37.05a14.22,14.22,0,0,1,.64,3.51,50.47,50.47,0,0,1-.53,12.72l.13-1.43c-3-.33-4.72-5.07-5.26-9.53s-.39-9.31-1.76-13.27c-1.13-3.28-3.31-6.43-2.49-10.1,2.9,3.36,3.63,9.73,6.25,13.58C394.58,313.43,395.88,314.55,396.57,316.45Zm-5.77-21.51c-1.34.38-2.56-1.26-2.95-3.19a20.34,20.34,0,0,1,.07-6.14,60.87,60.87,0,0,1,1.61-9.67,4.46,4.46,0,0,1,.78-1.73,2,2,0,0,1,1.63-.54,7.94,7.94,0,0,1,4.76,1,6.46,6.46,0,0,1,2.37,5.78c-.14,1.42-.71,2.8-.57,4.2a4.08,4.08,0,0,0,2.9,3.37l10.95,4.62c1,.42,2.23,1.62,1.74,3.09q-7.35-1.85-14.6-4.37a3.54,3.54,0,0,0-.82,2c-1.19.89-2.22-1.46-3.5-1.68C393.58,291.44,392.4,294.49,390.79,294.94Z"/>
          <path class="cls-3" d="M309.15,161.06c5.86,2,11.69,5,17.8,4.38,4.34-.43,8.64-2.66,12.95-3.62L340,155a2.1,2.1,0,0,0-2.14-2.59l-4.31-.9a14.6,14.6,0,0,0-5.27-4.26,53.61,53.61,0,0,0-29.92-6.28c-8.32.7-17.5,4.35-20.28,12.22a15.84,15.84,0,0,0-.82,5.84,24.29,24.29,0,0,1,4.79-1A61.36,61.36,0,0,1,309.15,161.06Z"/>
        </g>
      </g>
      <rect class="cls-8" y="-0.59" width="419.53" height="595.95"/>
    </g>
    <ellipse class="cls-3" cx="215.4" cy="343.99" rx="5.64" ry="9.99"/>
    <circle class="cls-3" cx="165.09" cy="308.03" r="4.66"/>
    <circle class="cls-3" cx="215.4" cy="247.06" r="5.64"/>
    <ellipse class="cls-3" cx="315.61" cy="99.41" rx="10.66" ry="8.15"/>
    <circle class="cls-3" cx="317.98" cy="67.16" r="2.37"/>
    <ellipse class="cls-3" cx="365.23" cy="82.34" rx="1.67" ry="5.63"/>
    <circle class="cls-3" cx="315.65" cy="134.9" r="4.7"/>
    <ellipse class="cls-3" cx="224.03" cy="444.22" rx="3" ry="8.99"/>
    <circle class="cls-3" cx="202.06" cy="468.87" r="4.33"/>
    <ellipse class="cls-3" cx="95.5" cy="86.04" rx="5.66" ry="8.2"/>
    <circle class="cls-3" cx="68.6" cy="95.34" r="4.07"/>
    <circle class="cls-3" cx="75.36" cy="10.63" r="6.76"/>
    <circle class="cls-3" cx="101.16" cy="17.38" r="6.84"/>
    <circle class="cls-3" cx="24.58" cy="53.53" r="2.01"/>
    <circle class="cls-3" cx="35.7" cy="142.75" r="3.14"/>
    <circle class="cls-3" cx="135.82" cy="200.05" r="2.03"/>
  </g>
</svg>
