<svg xmlns="http://www.w3.org/2000/svg" xmlns:xlink="http://www.w3.org/1999/xlink" width="148mm" height="210mm" viewBox="0 0 419.53 595.28">
  <defs>
    <style>
      .cls-1 {
        fill: #141412;
      }

      .cls-2, .cls-6 {
        fill: none;
      }

      .cls-3, .cls-8 {
        fill: #fff;
      }

      .cls-3, .cls-6 {
        stroke: #141412;
        stroke-miterlimit: 10;
      }

      .cls-4 {
        clip-path: url(#clip-path);
      }

      .cls-5 {
        clip-path: url(#clip-path-2);
      }

      .cls-7 {
        clip-path: url(#clip-path-3);
      }

      .cls-9 {
        clip-path: url(#clip-path-4);
      }
    </style>
    <clipPath id="clip-path">
      <rect class="cls-1" x="-439.53" width="419.53" height="595.28"/>
    </clipPath>
    <clipPath id="clip-path-2">
      <rect class="cls-2" width="419.53" height="595.28"/>
    </clipPath>
    <clipPath id="clip-path-3">
      <rect class="cls-2" y="615.28" width="419.53" height="593.88"/>
    </clipPath>
    <clipPath id="clip-path-4">
      <rect class="cls-3" x="-439.53" y="614.69" width="419.53" height="595.95"/>
    </clipPath>
  </defs>
  <title>Plan de travail 6</title>
  <g id="Calque_1" data-name="Calque 1">
    <g>
      <rect class="cls-1" x="-439.53" width="419.53" height="595.28"/>
      <g class="cls-4">
        <polygon class="cls-3" points="-17.88 -61.04 -47.64 -11.04 -17.88 38.96 11.96 -10.83 -17.88 -61.04"/>
        <polygon class="cls-3" points="-17.9 39.01 -47.66 89.01 -17.9 139.01 11.94 89.22 -17.9 39.01"/>
        <polygon class="cls-3" points="-17.81 139.04 -47.57 189.04 -17.81 239.04 12.03 189.25 -17.81 139.04"/>
        <polygon class="cls-3" points="-17.84 239.19 -47.59 289.19 -17.84 339.19 12.01 289.4 -17.84 239.19"/>
        <polygon class="cls-3" points="-18.05 338.34 -47.8 388.34 -18.05 438.34 11.8 388.55 -18.05 338.34"/>
        <polygon class="cls-3" points="-17.95 438.34 -47.7 488.34 -17.95 538.34 11.89 488.55 -17.95 438.34"/>
        <polygon class="cls-3" points="-17.93 538.32 -47.69 588.32 -17.93 638.32 11.91 588.52 -17.93 538.32"/>
        <polygon class="cls-3" points="348.94 71.21 318.04 63.43 294.12 84.47 291.96 52.68 264.56 36.43 294.13 24.56 301.12 -6.53 321.54 17.93 353.27 14.97 336.32 41.95 348.94 71.21"/>
      </g>
    </g>
  </g>
  <g id="Calque_2" data-name="Calque 2">
    <g class="cls-5">
      <polygon class="cls-6" points="294.38 224.81 292.81 217.37 285.79 214.44 292.38 210.65 292.99 203.06 298.64 208.16 306.04 206.4 302.94 213.34 306.9 219.84 299.34 219.03 294.38 224.81"/>
      <polygon class="cls-6" points="321.69 462.8 320.11 455.36 313.09 452.44 319.68 448.64 320.3 441.06 325.94 446.15 333.34 444.39 330.24 451.34 334.2 457.83 326.64 457.03 321.69 462.8"/>
      <polygon class="cls-6" points="166.23 374.08 162.56 356.7 146.16 349.87 161.55 341 162.98 323.29 176.17 335.2 193.46 331.08 186.21 347.3 195.46 362.47 177.79 360.59 166.23 374.08"/>
      <polygon class="cls-6" points="191.89 516.52 190.31 509.07 183.29 506.15 189.88 502.35 190.5 494.77 196.14 499.87 203.54 498.1 200.44 505.05 204.4 511.55 196.84 510.74 191.89 516.52"/>
      <polygon class="cls-6" points="268.82 528.07 251.89 507.46 225.31 509.72 239.68 487.25 229.31 462.66 255.13 469.39 275.3 451.93 276.89 478.56 299.73 492.36 274.89 502.09 268.82 528.07"/>
      <polygon class="cls-6" points="372.15 263.83 353.77 246.16 328.8 251.29 339.91 228.35 327.32 206.18 352.57 209.67 369.76 190.84 374.25 215.94 397.47 226.46 374.99 238.49 372.15 263.83"/>
      <polygon class="cls-6" points="209.94 286.06 206.11 282.53 201.03 283.68 203.21 278.95 200.55 274.47 205.72 275.08 209.15 271.17 210.17 276.27 214.96 278.33 210.41 280.88 209.94 286.06"/>
      <polygon class="cls-6" points="327.58 308.51 326 301.07 318.98 298.15 325.57 294.35 326.19 286.77 331.83 291.86 339.24 290.1 336.13 297.05 340.1 303.54 332.53 302.74 327.58 308.51"/>
      <polygon class="cls-6" points="81.85 94.78 66.2 84.07 48.52 90.89 53.86 72.71 41.91 57.99 60.86 57.46 71.16 41.54 77.52 59.4 95.84 64.27 80.83 75.85 81.85 94.78"/>
      <polygon class="cls-6" points="288.54 329.81 272.9 319.11 255.21 325.93 260.55 307.74 248.6 293.03 267.55 292.49 277.85 276.57 284.22 294.43 302.53 299.31 287.52 310.88 288.54 329.81"/>
      <polygon class="cls-6" points="416.78 69.17 386.14 70.11 369.55 95.89 359.18 67.04 329.54 59.23 353.77 40.45 352.04 9.85 377.38 27.09 405.96 15.99 397.39 45.42 416.78 69.17"/>
      <polygon class="cls-6" points="69.21 573.74 53.56 563.04 35.87 569.86 41.22 551.67 29.27 536.96 48.21 536.42 58.51 520.5 64.88 538.36 83.2 543.24 68.18 554.81 69.21 573.74"/>
      <polygon class="cls-6" points="50.99 356.42 39.95 362.07 38.34 374.38 29.55 365.62 17.36 367.89 22.97 356.83 17.04 345.93 29.3 347.85 37.83 338.85 39.79 351.1 50.99 356.42"/>
      <polygon class="cls-6" points="148.63 276.57 140.4 270.94 131.09 274.53 133.91 264.96 127.62 257.22 137.59 256.94 143 248.57 146.35 257.96 155.99 260.53 148.09 266.62 148.63 276.57"/>
      <polygon class="cls-6" points="419.43 637.9 369.29 603.6 312.6 625.46 329.73 567.17 291.42 520.02 352.15 518.3 385.16 467.3 405.56 524.52 464.27 540.15 416.15 577.24 419.43 637.9"/>
      <polygon class="cls-6" points="62.75 256.58 44.03 259.56 35.87 276.67 27.25 259.79 8.46 257.32 21.85 243.9 18.4 225.26 35.29 233.86 51.95 224.81 49 243.53 62.75 256.58"/>
      <polygon class="cls-6" points="230.51 68.96 224.23 64.67 217.14 67.4 219.28 60.1 214.48 54.2 222.09 53.98 226.22 47.6 228.78 54.76 236.13 56.72 230.1 61.36 230.51 68.96"/>
      <polygon class="cls-6" points="170.42 193.26 136.39 205.72 127.37 240.81 105 212.3 68.84 214.56 89.04 184.48 75.72 150.79 110.57 160.71 138.5 137.62 139.83 173.83 170.42 193.26"/>
      <polygon class="cls-6" points="288.54 190.86 272.9 180.15 255.21 186.97 260.55 168.79 248.6 154.07 267.55 153.54 277.85 137.62 284.22 155.48 302.53 160.35 287.52 171.93 288.54 190.86"/>
      <polygon class="cls-6" points="148.45 371.09 142.35 410.96 171.74 438.58 131.94 445.11 114.74 481.59 96.24 445.75 56.23 440.67 84.6 412 77.06 372.38 113.1 390.5 148.45 371.09"/>
      <polygon class="cls-6" points="207.8 606.15 206.23 598.71 199.21 595.79 205.8 591.99 206.41 584.41 212.06 589.5 219.46 587.74 216.36 594.69 220.32 601.18 212.76 600.38 207.8 606.15"/>
      <polygon class="cls-6" points="311.13 79.83 309.56 72.39 302.53 69.47 309.13 65.67 309.74 58.09 315.39 63.19 322.79 61.42 319.68 68.37 323.65 74.86 316.08 74.06 311.13 79.83"/>
      <polygon class="cls-6" points="408.4 420.12 389.27 409.02 369.27 418.48 373.92 396.85 358.74 380.76 380.75 378.5 391.36 359.09 400.31 379.32 422.05 383.41 405.58 398.18 408.4 420.12"/>
    </g>
    <g class="cls-7">
      <path class="cls-3" d="M517,375.85c-1.44.77-2.1,2.89-1.79,5.23a26.73,26.73,0,0,0-5.23,2.14c-.73.39-1.42.81-2.1,1.25a2.22,2.22,0,0,0-.14-1,1.7,1.7,0,0,0-2.42-.94,2.24,2.24,0,0,0-1,2.75,1.8,1.8,0,0,0,1,1,27.14,27.14,0,0,0-3.26,3.15c-.07-.21-.14-.42-.22-.62-1.17-2.95-3.61-4.54-5.46-3.56-4.73-8.62-14.73-11.87-23.43-7.21-9.46,5.07-13.81,17.58-9.71,27.94a18.14,18.14,0,0,0,11.45,11,22.28,22.28,0,0,0,1.54,8.24,18.47,18.47,0,0,0,9.2,10.11c-1.78,8.8-.42,20.92,4.32,32.89.25.63.5,1.24.76,1.85-.69,1.62-1.34,3.26-1.92,4.94a2.32,2.32,0,0,0-.71-.27,3,3,0,0,0-1.15,5.76l.17,0q-.67,2.49-1.18,5.06a79.84,79.84,0,0,0-1.36,10.28,6,6,0,0,0-2.2.81,2.58,2.58,0,0,0-1.95-2,3,3,0,0,0-1.15,5.76h.09a7.94,7.94,0,0,0-.32,1.13c-.76,3.81,1.36,7.44,4.73,8.12a5.56,5.56,0,0,0,1.12.1,74.88,74.88,0,0,0,1.46,8.5l-.6.33a6.57,6.57,0,0,0-5-5.36c-3.56-.71-7.1,2-7.9,6a7.34,7.34,0,0,0,3.3,7.94,32.09,32.09,0,0,0-2.93,5,10.7,10.7,0,0,0-2.37-.77c-8.83-1.76-18.21,8-21,21.72s2.19,26.33,11,28.09c6.4,1.28,13.09-3.48,17.33-11.44a8.23,8.23,0,0,0,1.15-1.12,23.88,23.88,0,0,0,11.28,5.68,23.55,23.55,0,0,0,7.91.22c0,.06,0,.11,0,.17-.7,3.52,1.25,6.87,4.37,7.49a5.12,5.12,0,0,0,1.29.09,6.63,6.63,0,0,0-.24.86,6.44,6.44,0,0,0,.08,2.91,25.82,25.82,0,0,0-12.78,5.11,4.94,4.94,0,0,0-3.41-2.69,5.46,5.46,0,0,0-6.06,4,7.07,7.07,0,0,0-5.17-4.64c-3.94-.79-7.86,2.19-8.74,6.64s1.59,8.7,5.53,9.48,7.86-2.19,8.74-6.64v0a5.24,5.24,0,0,0,1.68,1.93A33.36,33.36,0,0,0,479,622.18a7.27,7.27,0,0,0-1-.28c-4.41-.88-8.8,2.45-9.79,7.43a10.12,10.12,0,0,0,.05,4.24A27.07,27.07,0,0,0,465,634.7c.16-4.74-2.7-8.92-7-9.77-4.83-1-9.62,2.68-10.71,8.13s1.95,10.65,6.77,11.61l.28,0a14.83,14.83,0,0,0-1.09,4.72,56,56,0,0,0-11.53.29,6.41,6.41,0,0,0,.8-6,4.75,4.75,0,0,0-6.77-2.64,6.29,6.29,0,0,0-2.68,7.71v0a3.27,3.27,0,0,0-1.7-.28,22.27,22.27,0,0,0-1.54-8.21,19.54,19.54,0,0,0-4.19-6.53,5.71,5.71,0,0,0,.69-.31,7,7,0,0,0,3-8.63,6,6,0,0,0-1.6-2.3,23.54,23.54,0,0,0,1.52-2.16,5.74,5.74,0,0,0,7.73,2.13,7.7,7.7,0,0,0,3.28-9.44,5.82,5.82,0,0,0-8.29-3.23l-.18.11a9.87,9.87,0,0,0-.54-1.91c-1.44-3.64-4.86-5.77-9.17-6.23-.07-.23-.15-.46-.24-.68-1.23-3.1-3.76-4.79-5.65-3.77-1.44.77-2.1,2.89-1.79,5.23a26.73,26.73,0,0,0-5.23,2.14c-.73.39-1.42.81-2.1,1.25a2.22,2.22,0,0,0-.14-1,1.7,1.7,0,0,0-2.42-.94,2.24,2.24,0,0,0-1,2.75,1.8,1.8,0,0,0,1,1,27.14,27.14,0,0,0-3.26,3.15c-.07-.21-.14-.42-.22-.62-1.17-2.95-3.61-4.54-5.46-3.56-4.73-8.62-14.73-11.87-23.43-7.21-9.46,5.07-13.81,17.58-9.71,27.94a18.14,18.14,0,0,0,11.45,11,22.28,22.28,0,0,0,1.54,8.24,18.47,18.47,0,0,0,9.2,10.11c-1.78,8.8-.42,20.92,4.32,32.89.25.63.5,1.24.76,1.85-.69,1.62-1.34,3.26-1.92,4.94a2.32,2.32,0,0,0-.71-.27A3,3,0,0,0,386,702l.17,0q-.67,2.49-1.18,5.06a79.84,79.84,0,0,0-1.36,10.28,6,6,0,0,0-2.2.81,2.58,2.58,0,0,0-1.95-2,3,3,0,0,0-1.15,5.76h.09a7.94,7.94,0,0,0-.32,1.13c-.76,3.81,1.36,7.44,4.73,8.12a5.56,5.56,0,0,0,1.12.1,74.88,74.88,0,0,0,1.46,8.5l-.6.33a6.57,6.57,0,0,0-5-5.36c-3.56-.71-7.1,2-7.9,6a7.34,7.34,0,0,0,3.3,7.94,32.76,32.76,0,0,0-5.52,12.77,33.53,33.53,0,0,0-.64,7.17h0c-4.5-.9-8.65.91-9.27,4s2.52,6.38,7,7.28l.68.11a9.07,9.07,0,0,0-1.36,3.28c-.89,4.45,1.59,8.7,5.53,9.48a7.14,7.14,0,0,0,6.85-2.65,23.88,23.88,0,0,0,11.28,5.68,23.55,23.55,0,0,0,7.91.22c0,.06,0,.11,0,.17-.7,3.52,1.25,6.87,4.37,7.49a5.12,5.12,0,0,0,1.29.09,6.63,6.63,0,0,0-.24.86,6.44,6.44,0,0,0,.08,2.91,25.82,25.82,0,0,0-12.78,5.11,4.94,4.94,0,0,0-3.41-2.69,5.46,5.46,0,0,0-6.06,4,7.07,7.07,0,0,0-5.17-4.64c-3.94-.79-7.86,2.19-8.74,6.64s1.59,8.7,5.53,9.48,7.86-2.19,8.74-6.64v0a5.24,5.24,0,0,0,1.68,1.93,33.36,33.36,0,0,0-4.68,22.86,7.27,7.27,0,0,0-1-.28c-4.41-.88-8.8,2.45-9.79,7.43a10.12,10.12,0,0,0,.05,4.24,27.07,27.07,0,0,0-3.31,1.14c.16-4.74-2.7-8.92-7-9.77-4.83-1-9.62,2.68-10.71,8.13s1.95,10.65,6.77,11.61l.28,0a15.17,15.17,0,0,0-.84,2.77c-1.13,5.67,1.07,11.41,5.49,16-.09.34-.18.68-.25,1-1,4.83.58,9.2,3.44,9.77,2.18.43,4.49-1.47,5.9-4.52a34.45,34.45,0,0,0,7.4,2.36c1.1.22,2.19.38,3.27.49a3.22,3.22,0,0,0-.6,1.34,2.62,2.62,0,1,0,5.1,1,3.13,3.13,0,0,0-.34-2.18,31.36,31.36,0,0,0,6-.68c-.08.31-.16.62-.23.95-.92,4.59.6,8.77,3.39,9.34-1.21,14.67,7.43,27.91,20.58,30.53,14.29,2.85,28.48-7.92,31.7-24.06a31.47,31.47,0,0,0-4.48-23.78,33,33,0,0,0,4.46-11.22,32,32,0,0,0-2.63-20.63,55,55,0,0,0,7.21-9.42,9.21,9.21,0,0,0,.72,2.15,7.36,7.36,0,0,0,10.83,3.19A9.84,9.84,0,0,0,463,838.32a7.36,7.36,0,0,0-9.26-4,110.4,110.4,0,0,0,5.58-16.54,5.09,5.09,0,0,0,.39,1.24,4.09,4.09,0,0,0,6,1.77,5.46,5.46,0,0,0,1.87-6.82,4.09,4.09,0,0,0-6-1.77,4.9,4.9,0,0,0-1.22,1.15c.13-.6.26-1.19.38-1.79.31-1.56.58-3.1.82-4.63a17.29,17.29,0,0,0,16.73-13.71A16.88,16.88,0,0,0,475,779.61c15.67-10,27.77-27.18,32-48.21a78.74,78.74,0,0,0,1.41-19.76,23.58,23.58,0,0,0,4.23,1.27c14.29,2.85,28.48-7.92,31.7-24.06a31.47,31.47,0,0,0-4.48-23.78,33,33,0,0,0,4.46-11.22,32,32,0,0,0-2.63-20.63,55,55,0,0,0,7.21-9.42,9.21,9.21,0,0,0,.72,2.15,7.36,7.36,0,0,0,10.83,3.19,9.84,9.84,0,0,0,3.36-12.28,7.36,7.36,0,0,0-9.26-4,110.4,110.4,0,0,0,5.58-16.54,5.09,5.09,0,0,0,.39,1.24,4.09,4.09,0,0,0,6,1.77,5.46,5.46,0,0,0,1.87-6.82,4.09,4.09,0,0,0-6-1.77,4.9,4.9,0,0,0-1.22,1.15c.13-.6.26-1.19.38-1.79.31-1.56.58-3.1.82-4.63a17.29,17.29,0,0,0,16.73-13.71,16.88,16.88,0,0,0-3.25-13.64c15.67-10,27.77-27.18,32-48.21,7.59-38.06-13.58-74.36-47.28-81.08a55.62,55.62,0,0,0-18-.6,6.41,6.41,0,0,0,.8-6,4.75,4.75,0,0,0-6.77-2.64,6.29,6.29,0,0,0-2.68,7.71v0a3.27,3.27,0,0,0-1.7-.28,22.27,22.27,0,0,0-1.54-8.21,19.54,19.54,0,0,0-4.19-6.53,5.71,5.71,0,0,0,.69-.31,7,7,0,0,0,3-8.63,6,6,0,0,0-1.6-2.3,23.54,23.54,0,0,0,1.52-2.16,5.74,5.74,0,0,0,7.73,2.13,7.7,7.7,0,0,0,3.28-9.44,5.82,5.82,0,0,0-8.29-3.23l-.18.11a9.87,9.87,0,0,0-.54-1.91c-1.44-3.64-4.86-5.77-9.17-6.23-.07-.23-.15-.46-.24-.68C521.44,376.53,518.91,374.84,517,375.85Z"/>
    </g>
    <g>
      <rect class="cls-8" x="-439.53" y="614.69" width="419.53" height="595.95"/>
      <g class="cls-9">
        <path class="cls-3" d="M-355,513.44c13.43,6.83,32.88.79,41.63,13.55,7.93,11.56-1.22,28.14-12.7,35.67s-25.59,11-34.86,21.4c-3.92,4.4-7.11,10.11-12.53,12.06-8.56,3.08-16.86-4.83-22.84-12-10.47,17.92-25.91,32-42.1,44.23A341.58,341.58,0,0,1-496,663.63c13.8,7.11,30.15-1.21,42.49-10.87s24.94-21.42,40.28-21.75c5.2-.11,10.91,1,15.22-2.07,2.22-1.6,3.69-4.09,5.42-6.27,8.77-11,23.69-13.32,37.22-14.87,7.09-.81,15.09-1.34,20.47,3.6s3.46,17.17-3.66,16.84A22,22,0,0,1-331.71,645c-11.38-.75-22.94,5.55-29,15.8-6.16,10.48-6.4,23.54-6.46,35.88,4.23.54,7.13-4.64,7.42-9.14s-.78-9.22.83-13.39c4.5-11.71,21.66-6.31,32.37-11.91,4.57-2.39,8-6.95,12.87-8.59,3.08-1,6.4-.79,9.62-.52l23.86,2c-7.41,5.7-8.9,18.29-3,25.74,8.89-18.54,28-29.05,46.93-34.63s38.81-7.45,57.19-14.8c6.26-2.51,13.66-5.54,19.2-1.56.36-12.21,9.36-23.53,20.66-26A20.43,20.43,0,0,1-136.13,622l7.22-2.59,7,8.6a102,102,0,0,0-24.15,40.42c1.27,3.1,5.87,3.83,7.94,1.25A139.62,139.62,0,0,1-81,626.92a7.36,7.36,0,0,1,4.51-.74c2.12.56,3.39,2.79,4.36,4.85A126.59,126.59,0,0,1-67.33,726c-2,5.63-4.38,12-1.81,17.36l12.49-6.81c-12.1,20.81,2.9,49.54-6.63,71.79-3.15,7.36-8.92,13.8-9.43,21.86-.37,5.8,2,12.07-.57,17.18-1.46,2.86-4.23,4.7-6.07,7.31-5.42,7.72-1.1,18.49,2.53,27.31s5.4,21.29-2.43,26.17a7.51,7.51,0,0,0,8.48,2.69,9.45,9.45,0,0,1-.36,10.55,11.07,11.07,0,0,0,7.19,4.94,309.42,309.42,0,0,0-6-65.75c5.27-9.24,14.39-15.08,22-22.21s14.42-17.43,12.26-28c-1.35-6.6-3.92-16.83,2.44-17.35,1.93-.16,3.7,1.06,5.25,2.29A89.49,89.49,0,0,1-.25,833.05C5.54,848,9.37,866.8,23.65,872.5A353.49,353.49,0,0,0,3.3,783c7.5-3.11,6.21-15.18,1.33-22S-7.55,748.6-8.61,740.16a7.84,7.84,0,0,1,.52-4.44c1.83-3.69,7.14-3.37,10.42-1s5.6,6,9,8c4.89,2.9,11.16,2,16.12,4.82,4.09,2.3,6.66,6.72,9,10.93l24.86,44.13c4.57.87,6.4-6.68,4-10.88S58.55,784.62,57.1,780c-1.22-3.93,0-8.24-.63-12.33-.9-6.1-5.54-10.7-9.91-14.8l-36.2-33.89c-4.48-4.2-9.11-8.59-11.46-14.42s-1.73-13.51,3-17.33c4.37,12,21.18,7.16,32.95,10.2,10.73,2.78,17.89,13.17,24.1,22.83,6.23-2.9,6.24-13,1.9-18.53s-11.19-8-17.37-11C26,682.1,11.66,666.5,4,647.73c-1.22-3-2.28-6.3-1.52-9.45,1.76-7.26,11.72-8.28,17.8-4.43s10.09,10.56,15.94,14.79a7.24,7.24,0,0,0,4.09,1.69c4.59,0,5.92-7.34,3.25-11.3s-7.28-5.84-10.7-9.08-5.28-9.66-1.65-12.64l19,12L28.79,570.74c-4.62-12.63-9.51-25.7-18.8-35-9.5-9.54-22.56-14.06-32.85-22.63C-33.76,504-40.93,491-49,479A221,221,0,0,0-92,431.7c-8.85-7.25-19.77-14.08-30.63-11.2-11.21,3-17.88,15.2-21.11,26.94s-4.46,24.4-10.64,34.74c5.85,9.49,1.43,24.15-8.54,28.3-8.92,3.71-18.8-.46-28.18-2.58A66.3,66.3,0,0,0-231,511.38c-20.17,8.37-35.42,26-49.91,43,13.31-7.28,22.8-20.63,35.63-28.82,19.43-12.39,43.66-11.41,66.31-10,5.51.33,11.3.77,15.89,4s7.25,10.31,4.09,15.09c-1.79,2.72-4.92,4-7.85,5.2l-32,12.66a11.33,11.33,0,0,1,4.27,8.5,56.56,56.56,0,0,0-26.95,11.56l29.83,3.07c4.71.48,9.51,1,14.12-.18,8.86-2.21,16.42-10.27,25.49-9.43.12,3.43-1.61,6.59-3.29,9.53-5,8.69-10.12,17.62-17.84,23.66s-18.72,8.55-27,3.38c-3.76-2.36-6.71-6.11-10.76-7.86-8.13-3.52-17.27,2.35-22.94,9.46s-9.8,15.83-17,21.12-19.36,4.84-22.67-3.77c-2-5.33.1-11.31.6-17s-2.42-13.07-7.85-12.67c1,10.39-2.43,22.43-11.45,26.65s-21.84-5.84-17.71-15.32c1.51-3.47,4.84-6.19,5-10,.16-4.26-4.14-7.55-8.17-7.46s-7.64,2.62-10.7,5.39c-7.79-4.79-7.15-17.75-1.34-25s14.76-10.63,22.92-14.66,16.56-10,18.82-19.18c.7-2.84.56-6.31-1.6-8.15,3.75,1.3,7.48-2.64,8.45-6.69s.3-8.37,1.09-12.47c2.76-14.15,19.81-18.06,33.43-19l5.43-.38c-10.7-2.65-16.36-18-10.17-27.65l45.33,18.24c3.54,1.42,7.71,2.79,10.9.65,2-1.37,3.11-3.84,4.27-6.08,7.47-14.44,23.35-23.49,38.86-22.14-6.68-5.33-15.82.48-23.11,4.81a64.52,64.52,0,0,1-57.07,4.2c-9.82-4.07-21.21-10.52-30-4.34-3.79,2.67-6,7.16-8.06,11.46L-277,488.24c-2.38,5-4.87,10.11-8.87,13.75C-304.26,518.74-338.94,494.17-355,513.44Zm311.26,298.3a17,17,0,0,1-2.13,5.37A50.88,50.88,0,0,1-58.42,832l1.54-1.55c-4.74-5.2-3.35-13.86-.16-20.25S-49.15,798-47.83,791c1.09-5.87.29-13.27,5.07-16.48,1.82,8.82-2.8,17.87-1.89,26.84C-44.3,804.81-43.12,808.29-43.71,811.74Zm25.31-61.39a5.21,5.21,0,0,1,2.92-.88,5.91,5.91,0,0,1,3.26,2c2.76,2.62,5.6,5.36,7.13,8.94s1.41,8.26-1.3,11c-1.54,1.53-3.78,2.32-4.82,4.27-1.49,2.76.18,6.17,1.82,8.84l14.3,23.33c1.3,2.12,2.28,5.58.11,6.63q-10.76-14.13-20.73-28.9a4.06,4.06,0,0,0-3.23,1.15c-2.83-.82-2.42-5.39-4.38-7.7-2.45-2.9-7.26-1-10.4-3.05-2.62-1.68-3.18-5.67-2.06-8.69s3.48-5.31,5.76-7.48C-26.39,756.25-22.72,752.76-18.4,750.35Zm16.12-96.78c1.54,2.54,3.93,4.38,5.74,6.72a34.85,34.85,0,0,1,3.77,6.81l4.24,9.21A54.7,54.7,0,0,1-9.94,662.63l3,1.31-4.29-2.12c-.22,4.78,3.52,9,3.43,13.75-.08,3.88-2.63,7.13-4.24,10.62a22.89,22.89,0,0,0-1.6,13.92c.5,2.49,1.42,4.9,1.53,7.45s-.86,5.39-3.07,6.4c-4-1.13-6.2-6-6.2-10.44s1.54-8.66,2.34-13,.69-9.31-2.11-12.6c-2.06-2.44-5.21-3.5-7.59-5.59-2.77-2.43-4.3-6-5.75-9.52-.7-1.68-1.41-3.5-1.05-5.3a9,9,0,0,1,2.64-4.17c3.33-3.56,7.8-7.42,12.26-5.75,2.06.77,3.92,2.7,6.08,2.3,3.53-.65,3.41-6.06,2.26-9.65s-1.68-8.83,1.74-10C-3.75,634.85-6.63,646.41-2.28,653.57Zm4.1-121.65a2.67,2.67,0,0,1,2.25,1c6.5,6.33,8.39,16.22,12.51,24.49,2.62,5.25,6.21,10,8.33,15.46s2.49,12.33-1.07,16.92l2-1.07c-4.84,5.4-1.29,14.91-4.91,21.3A9.47,9.47,0,0,1,10,614.44a10.26,10.26,0,0,1-6.66-10.05c.24-4.93,3.89-9.53,2.79-14.33-.87-3.79-4.34-6.1-6.93-8.88-5.55-6-7.28-15-6.39-23.35S-3.08,541.69.07,534C.44,533.12.93,532.12,1.82,531.92Zm-75.21,59.14c3-1.84,6.82-3.33,9.91-1.61,2.1,1.17,3.31,3.53,4.5,5.7,3.6,6.53,8.4,12.69,14.93,15.75s15,2.29,19.77-3.38a69.23,69.23,0,0,1-15.16,42.12c-2,2.5-4.31,4.95-5.33,8.07-3.28,10,7.5,19.43,7.4,30,0,4.66-2.24,9.13-1.89,13.77.67,8.88,10,14.25,12.74,22.67,2.33,7.09-.56,15.15-5.4,20.64-4.08,4.63-9.36,7.79-14.73,10.65-.11.51-.23,1-.37,1.52l-2.62.05,3-1.58a37.35,37.35,0,0,0-5.73-29.24c-1.17-1.65-2.55-3.36-2.62-5.43-.17-5.06,6.86-6.67,8.92-11.24,1-2.32.64-5,.21-7.58l-10-58.43C-56.87,637.34-58,631-61,625.59c-6.43-11.33-21.74-15.79-32.75-9.53A49.9,49.9,0,0,1-73.38,591.07Zm-150.13,15.45a12.15,12.15,0,0,1,6.27-1c6.46.21,14.34,2.24,16,8.86-.89,4-6.37,3.45-10.23,4.24s-6.92,3.82-10.07,6.33-7.14,4.68-10.9,3.43l-2.75,1.65q3.15-7.91,6.35-15.79C-227.68,611.24-226.26,608-223.51,606.51Z"/>
      </g>
      <rect class="cls-6" x="-439.53" y="614.69" width="419.53" height="595.95"/>
    </g>
  </g>
</svg>
