<svg xmlns="http://www.w3.org/2000/svg" xmlns:xlink="http://www.w3.org/1999/xlink" width="148mm" height="210mm" viewBox="0 0 419.53 595.28">
  <defs>
    <style>
      .cls-1, .cls-4 {
        fill: #141412;
      }

      .cls-2, .cls-5 {
        fill: #fff;
      }

      .cls-2, .cls-7 {
        stroke: #141412;
      }

      .cls-2, .cls-4, .cls-7 {
        stroke-miterlimit: 10;
      }

      .cls-3 {
        clip-path: url(#clip-path);
      }

      .cls-4 {
        stroke: #fff;
      }

      .cls-6 {
        clip-path: url(#clip-path-2);
      }

      .cls-7 {
        fill: none;
      }
    </style>
    <clipPath id="clip-path">
      <rect class="cls-1" width="419.53" height="595.28"/>
    </clipPath>
    <clipPath id="clip-path-2">
      <rect class="cls-2" y="614.69" width="419.53" height="595.95"/>
    </clipPath>
  </defs>
  <title>Plan de travail 1</title>
  <g id="Calque_1" data-name="Calque 1">
    <g>
      <rect class="cls-1" width="419.53" height="595.28"/>
      <g class="cls-3">
        <polygon class="cls-1" points="93.67 89.16 63.91 139.16 93.67 189.16 123.51 139.36 93.67 89.16"/>
        <polygon class="cls-2" points="123.45 39.21 93.69 89.21 123.45 139.21 153.29 89.41 123.45 39.21"/>
        <polygon class="cls-2" points="63.85 139.21 34.09 189.21 63.85 239.21 93.69 189.41 63.85 139.21"/>
        <polygon class="cls-1" points="153.22 -10.74 123.47 39.26 153.22 89.26 183.06 39.47 153.22 -10.74"/>
        <polygon class="cls-1" points="34.03 189.26 4.27 239.26 34.03 289.26 63.87 239.47 34.03 189.26"/>
        <polygon class="cls-2" points="4.21 239.31 -25.55 289.31 4.21 339.31 34.05 289.52 4.21 239.31"/>
        <polygon class="cls-2" points="123.42 139.26 93.67 189.26 123.42 239.26 153.27 189.47 123.42 139.26"/>
        <polygon class="cls-1" points="93.65 189.31 63.89 239.31 93.65 289.31 123.49 239.52 93.65 189.31"/>
        <polygon class="cls-2" points="63.83 239.36 34.07 289.36 63.83 339.36 93.67 289.57 63.83 239.36"/>
        <polygon class="cls-1" points="34.01 289.41 4.25 339.41 34.01 389.41 63.85 339.62 34.01 289.41"/>
        <polygon class="cls-1" points="153.32 89.26 123.56 139.26 153.32 189.26 183.16 139.47 153.32 89.26"/>
        <polygon class="cls-2" points="183.06 39.26 153.3 89.26 183.06 139.26 212.9 89.47 183.06 39.26"/>
        <polygon class="cls-1" points="153.33 189.23 123.58 239.23 153.33 289.23 183.18 239.44 153.33 189.23"/>
        <polygon class="cls-2" points="183.11 139.28 153.36 189.28 183.11 239.28 212.95 189.49 183.11 139.28"/>
        <polygon class="cls-2" points="123.51 239.28 93.76 289.29 123.51 339.29 153.36 289.49 123.51 239.28"/>
        <polygon class="cls-1" points="212.89 89.34 183.13 139.34 212.89 189.34 242.73 139.54 212.89 89.34"/>
        <polygon class="cls-1" points="93.69 289.34 63.94 339.34 93.69 389.34 123.54 339.54 93.69 289.34"/>
        <polygon class="cls-2" points="63.87 339.39 34.12 389.39 63.87 439.39 93.72 389.6 63.87 339.39"/>
        <polygon class="cls-2" points="183.09 239.34 153.33 289.34 183.09 339.34 212.93 289.54 183.09 239.34"/>
        <polygon class="cls-1" points="153.31 289.39 123.56 339.39 153.31 389.39 183.16 339.6 153.31 289.39"/>
        <polygon class="cls-2" points="123.49 339.44 93.74 389.44 123.49 439.44 153.33 389.65 123.49 339.44"/>
        <polygon class="cls-1" points="93.67 389.49 63.92 439.49 93.67 489.49 123.51 439.7 93.67 389.49"/>
        <polygon class="cls-1" points="212.99 189.34 183.23 239.34 212.99 289.34 242.83 239.54 212.99 189.34"/>
        <polygon class="cls-2" points="242.72 139.34 212.97 189.34 242.72 239.34 272.57 189.54 242.72 139.34"/>
        <polygon class="cls-1" points="212.91 289.32 183.15 339.32 212.91 389.32 242.75 339.53 212.91 289.32"/>
        <polygon class="cls-2" points="242.68 239.38 212.93 289.38 242.68 339.38 272.53 289.58 242.68 239.38"/>
        <polygon class="cls-2" points="183.09 339.38 153.33 389.38 183.09 439.38 212.93 389.58 183.09 339.38"/>
        <polygon class="cls-1" points="272.46 189.43 242.71 239.43 272.46 289.43 302.3 239.63 272.46 189.43"/>
        <polygon class="cls-1" points="153.27 389.43 123.51 439.43 153.27 489.43 183.11 439.63 153.27 389.43"/>
        <polygon class="cls-2" points="123.45 439.48 93.69 489.48 123.45 539.48 153.29 489.69 123.45 439.48"/>
        <polygon class="cls-2" points="242.66 339.43 212.91 389.43 242.66 439.43 272.5 389.63 242.66 339.43"/>
        <polygon class="cls-1" points="212.88 389.48 183.13 439.48 212.88 489.48 242.73 439.69 212.88 389.48"/>
        <polygon class="cls-2" points="183.06 439.53 153.31 489.53 183.06 539.53 212.91 489.74 183.06 439.53"/>
        <polygon class="cls-1" points="153.25 489.58 123.49 539.58 153.25 589.58 183.09 539.79 153.25 489.58"/>
        <polygon class="cls-1" points="272.56 289.43 242.8 339.43 272.56 389.43 302.4 339.63 272.56 289.43"/>
        <polygon class="cls-2" points="302.3 239.43 272.54 289.43 302.3 339.43 332.14 289.63 302.3 239.43"/>
        <polygon class="cls-1" points="272.57 389.4 242.82 439.4 272.57 489.4 302.41 439.61 272.57 389.4"/>
        <polygon class="cls-2" points="302.35 339.45 272.59 389.45 302.35 439.45 332.19 389.66 302.35 339.45"/>
        <polygon class="cls-2" points="242.75 439.45 213 489.45 242.75 539.45 272.59 489.66 242.75 439.45"/>
        <polygon class="cls-1" points="332.13 289.5 302.37 339.5 332.13 389.5 361.97 339.71 332.13 289.5"/>
        <polygon class="cls-1" points="212.93 489.5 183.18 539.5 212.93 589.5 242.77 539.71 212.93 489.5"/>
        <polygon class="cls-2" points="183.11 539.56 153.36 589.56 183.11 639.56 212.95 589.76 183.11 539.56"/>
        <polygon class="cls-2" points="302.33 439.5 272.57 489.5 302.33 539.5 332.17 489.71 302.33 439.5"/>
        <polygon class="cls-1" points="272.55 489.56 242.79 539.56 272.55 589.56 302.39 539.76 272.55 489.56"/>
        <polygon class="cls-2" points="242.73 539.61 212.97 589.61 242.73 639.61 272.57 589.82 242.73 539.61"/>
        <polygon class="cls-1" points="212.91 589.66 183.16 639.66 212.91 689.66 242.75 639.87 212.91 589.66"/>
        <polygon class="cls-1" points="332.22 389.5 302.47 439.5 332.22 489.5 362.06 439.71 332.22 389.5"/>
        <polygon class="cls-2" points="361.96 339.5 332.21 389.5 361.96 439.5 391.8 389.71 361.96 339.5"/>
        <polygon class="cls-2" points="183.07 -60.94 153.31 -10.94 183.07 39.06 212.91 -10.73 183.07 -60.94"/>
        <polygon class="cls-2" points="242.69 -60.88 212.93 -10.88 242.69 39.12 272.53 -10.68 242.69 -60.88"/>
        <polygon class="cls-1" points="212.87 -10.83 183.11 39.17 212.87 89.17 242.71 39.38 212.87 -10.83"/>
        <polygon class="cls-2" points="302.38 -60.96 272.62 -10.96 302.38 39.04 332.22 -10.75 302.38 -60.96"/>
        <polygon class="cls-1" points="272.56 -10.91 242.8 39.09 272.56 89.09 302.4 39.3 272.56 -10.91"/>
        <polygon class="cls-2" points="242.74 39.14 212.98 89.14 242.74 139.14 272.58 89.35 242.74 39.14"/>
        <polygon class="cls-2" points="361.95 -60.91 332.19 -10.91 361.95 39.09 391.79 -10.7 361.95 -60.91"/>
        <polygon class="cls-1" points="332.17 -10.86 302.42 39.14 332.17 89.14 362.02 39.35 332.17 -10.86"/>
        <polygon class="cls-2" points="302.35 39.19 272.6 89.19 302.35 139.19 332.19 89.4 302.35 39.19"/>
        <polygon class="cls-1" points="272.53 89.25 242.78 139.25 272.53 189.25 302.38 139.45 272.53 89.25"/>
        <polygon class="cls-1" points="391.87 -11.09 362.12 38.91 391.87 88.91 421.71 39.12 391.87 -11.09"/>
        <polygon class="cls-2" points="421.65 -61.04 391.89 -11.04 421.65 38.96 451.49 -10.83 421.65 -61.04"/>
        <polygon class="cls-2" points="362.05 38.96 332.3 88.96 362.05 138.96 391.89 89.17 362.05 38.96"/>
        <polygon class="cls-1" points="332.23 89.01 302.48 139.01 332.23 189.01 362.07 139.22 332.23 89.01"/>
        <polygon class="cls-2" points="302.41 139.06 272.65 189.06 302.41 239.06 332.25 189.27 302.41 139.06"/>
        <polygon class="cls-2" points="421.63 39.01 391.87 89.01 421.63 139.01 451.47 89.22 421.63 39.01"/>
        <polygon class="cls-1" points="391.85 89.06 362.09 139.06 391.85 189.06 421.69 139.27 391.85 89.06"/>
        <polygon class="cls-2" points="362.03 139.12 332.27 189.12 362.03 239.12 391.87 189.32 362.03 139.12"/>
        <polygon class="cls-1" points="332.21 189.17 302.45 239.17 332.21 289.17 362.05 239.38 332.21 189.17"/>
        <polygon class="cls-2" points="421.72 139.04 391.96 189.04 421.72 239.04 451.56 189.25 421.72 139.04"/>
        <polygon class="cls-1" points="391.9 189.09 362.14 239.09 391.9 289.09 421.74 239.3 391.9 189.09"/>
        <polygon class="cls-2" points="362.08 239.14 332.32 289.14 362.08 339.14 391.92 289.35 362.08 239.14"/>
        <polygon class="cls-2" points="421.69 239.19 391.94 289.19 421.69 339.19 451.54 289.4 421.69 239.19"/>
        <polygon class="cls-1" points="391.87 289.25 362.12 339.25 391.87 389.25 421.72 339.45 391.87 289.25"/>
        <polygon class="cls-2" points="361.93 438.24 332.18 488.24 361.93 538.24 391.77 488.44 361.93 438.24"/>
        <polygon class="cls-1" points="391.71 388.29 361.95 438.29 391.71 488.29 421.55 438.5 391.71 388.29"/>
        <polygon class="cls-1" points="332.11 488.29 302.36 538.29 332.11 588.29 361.95 538.5 332.11 488.29"/>
        <polygon class="cls-2" points="421.48 338.34 391.73 388.34 421.48 438.34 451.33 388.55 421.48 338.34"/>
        <polygon class="cls-2" points="302.29 538.34 272.54 588.34 302.29 638.34 332.13 588.55 302.29 538.34"/>
        <polygon class="cls-1" points="272.47 588.39 242.71 638.39 272.47 688.39 302.31 638.6 272.47 588.39"/>
        <polygon class="cls-1" points="391.69 488.34 361.93 538.34 391.69 588.34 421.53 538.55 391.69 488.34"/>
        <polygon class="cls-2" points="361.91 538.39 332.15 588.39 361.91 638.39 391.75 588.6 361.91 538.39"/>
        <polygon class="cls-1" points="332.09 588.45 302.33 638.45 332.09 688.45 361.93 638.65 332.09 588.45"/>
        <polygon class="cls-2" points="421.58 438.34 391.83 488.34 421.58 538.34 451.42 488.55 421.58 438.34"/>
        <polygon class="cls-2" points="421.6 538.32 391.84 588.32 421.6 638.32 451.44 588.52 421.6 538.32"/>
        <polygon class="cls-1" points="391.77 588.37 362.02 638.37 391.77 688.37 421.62 638.57 391.77 588.37"/>
        <polygon class="cls-2" points="-25.74 289.52 -55.5 339.52 -25.74 389.52 4.1 339.73 -25.74 289.52"/>
        <polygon class="cls-2" points="-25.64 389.52 -55.4 439.52 -25.64 489.52 4.2 439.73 -25.64 389.52"/>
        <polygon class="cls-2" points="4.09 339.52 -25.66 389.52 4.09 439.52 33.94 389.73 4.09 339.52"/>
        <polygon class="cls-2" points="-25.63 489.49 -55.39 539.49 -25.63 589.49 4.21 539.7 -25.63 489.49"/>
        <polygon class="cls-2" points="4.15 439.54 -25.61 489.54 4.15 539.54 33.99 489.75 4.15 439.54"/>
        <polygon class="cls-1" points="33.92 389.6 4.17 439.6 33.92 489.6 63.77 439.8 33.92 389.6"/>
        <polygon class="cls-2" points="4.13 539.6 -25.63 589.6 4.13 639.6 33.97 589.8 4.13 539.6"/>
        <polygon class="cls-2" points="-25.65 589.65 -55.41 639.65 -25.65 689.65 4.19 639.86 -25.65 589.65"/>
        <polygon class="cls-4" points="34.02 489.6 4.27 539.6 34.02 589.6 63.86 539.8 34.02 489.6"/>
        <polygon class="cls-2" points="63.76 439.6 34 489.6 63.76 539.6 93.6 489.8 63.76 439.6"/>
        <polygon class="cls-1" points="34.05 588.3 4.3 638.3 34.05 688.3 63.9 638.51 34.05 588.3"/>
        <polygon class="cls-2" points="63.83 538.35 34.08 588.35 63.83 638.35 93.67 588.56 63.83 538.35"/>
        <polygon class="cls-4" points="93.61 488.41 63.85 538.41 93.61 588.41 123.45 538.61 93.61 488.41"/>
        <polygon class="cls-1" points="93.71 588.41 63.95 638.41 93.71 688.41 123.55 638.61 93.71 588.41"/>
        <polygon class="cls-2" points="123.44 538.41 93.69 588.41 123.44 638.41 153.29 588.61 123.44 538.41"/>
        <polygon class="cls-1" points="153.27 588.48 123.52 638.48 153.27 688.48 183.12 638.69 153.27 588.48"/>
        <polygon class="cls-2" points="4.17 -60.81 -25.58 -10.81 4.17 39.19 34.01 -10.6 4.17 -60.81"/>
        <polygon class="cls-2" points="-25.61 -10.75 -55.36 39.25 -25.61 89.25 4.24 39.45 -25.61 -10.75"/>
        <polygon class="cls-1" points="34.08 -10.83 4.33 39.17 34.08 89.17 63.92 39.38 34.08 -10.83"/>
        <polygon class="cls-2" points="63.86 -60.78 34.1 -10.78 63.86 39.22 93.7 -10.57 63.86 -60.78"/>
        <polygon class="cls-2" points="4.26 39.22 -25.49 89.22 4.26 139.22 34.1 89.43 4.26 39.22"/>
        <polygon class="cls-2" points="-25.56 89.27 -55.31 139.27 -25.56 189.27 4.28 139.48 -25.56 89.27"/>
        <polygon class="cls-2" points="63.84 39.27 34.08 89.27 63.84 139.27 93.68 89.48 63.84 39.27"/>
        <polygon class="cls-1" points="34.06 89.32 4.3 139.32 34.06 189.32 63.9 139.53 34.06 89.32"/>
        <polygon class="cls-2" points="4.24 139.38 -25.52 189.38 4.24 239.38 34.08 189.58 4.24 139.38"/>
        <polygon class="cls-2" points="-25.58 189.43 -55.34 239.43 -25.58 289.43 4.26 239.63 -25.58 189.43"/>
        <polygon class="cls-1" points="93.73 -10.73 63.98 39.27 93.73 89.27 123.57 39.48 93.73 -10.73"/>
        <polygon class="cls-2" points="123.47 -60.73 93.72 -10.73 123.47 39.27 153.31 -10.52 123.47 -60.73"/>
      </g>
    </g>
  </g>
  <g id="Calque_2" data-name="Calque 2">
    <g>
      <rect class="cls-5" y="614.69" width="419.53" height="595.95"/>
      <g class="cls-6">
        <path class="cls-2" d="M84.56,513.44c13.43,6.83,32.88.79,41.63,13.55,7.93,11.56-1.22,28.14-12.7,35.67s-25.59,11-34.86,21.4c-3.92,4.4-7.11,10.11-12.53,12.06-8.56,3.08-16.86-4.83-22.84-12-10.47,17.92-25.91,32-42.1,44.23a341.58,341.58,0,0,1-57.67,35.31c13.8,7.11,30.15-1.21,42.49-10.87S10.93,631.34,26.27,631c5.2-.11,10.91,1,15.22-2.07,2.22-1.6,3.69-4.09,5.42-6.27,8.77-11,23.69-13.32,37.22-14.87,7.09-.81,15.09-1.34,20.47,3.6s3.46,17.17-3.66,16.84A22,22,0,0,1,107.82,645c-11.38-.75-22.94,5.55-29,15.8-6.16,10.48-6.4,23.54-6.46,35.88,4.23.54,7.13-4.64,7.42-9.14s-.78-9.22.83-13.39c4.5-11.71,21.66-6.31,32.37-11.91,4.57-2.39,8-6.95,12.87-8.59,3.08-1,6.4-.79,9.62-.52l23.86,2c-7.41,5.7-8.9,18.29-3,25.74,8.89-18.54,28-29.05,46.93-34.63s38.81-7.45,57.19-14.8c6.26-2.51,13.66-5.54,19.2-1.56.36-12.21,9.36-23.53,20.66-26A20.43,20.43,0,0,1,303.4,622l7.22-2.59,7,8.6a102,102,0,0,0-24.15,40.42c1.27,3.1,5.87,3.83,7.94,1.25a139.62,139.62,0,0,1,57.12-42.77,7.36,7.36,0,0,1,4.51-.74c2.12.56,3.39,2.79,4.36,4.85A126.59,126.59,0,0,1,372.2,726c-2,5.63-4.38,12-1.81,17.36l12.49-6.81c-12.1,20.81,2.9,49.54-6.63,71.79-3.15,7.36-8.92,13.8-9.43,21.86-.37,5.8,2,12.07-.57,17.18-1.46,2.86-4.23,4.7-6.07,7.31-5.42,7.72-1.1,18.49,2.53,27.31s5.4,21.29-2.43,26.17a7.51,7.51,0,0,0,8.48,2.69,9.45,9.45,0,0,1-.36,10.55,11.07,11.07,0,0,0,7.19,4.94,309.42,309.42,0,0,0-6-65.75c5.27-9.24,14.39-15.08,22-22.21s14.42-17.43,12.26-28c-1.35-6.6-3.92-16.83,2.44-17.35,1.93-.16,3.7,1.06,5.25,2.29a89.49,89.49,0,0,1,27.67,37.74c5.8,14.94,9.62,33.75,23.9,39.45A353.49,353.49,0,0,0,442.83,783c7.5-3.11,6.21-15.18,1.33-22S432,748.6,430.92,740.16a7.84,7.84,0,0,1,.52-4.44c1.83-3.69,7.14-3.37,10.42-1s5.6,6,9,8c4.89,2.9,11.16,2,16.12,4.82,4.09,2.3,6.66,6.72,9,10.93l24.86,44.13c4.57.87,6.4-6.68,4-10.88s-6.83-7.06-8.28-11.73c-1.22-3.93,0-8.24-.63-12.33-.9-6.1-5.54-10.7-9.91-14.8l-36.2-33.89c-4.48-4.2-9.11-8.59-11.46-14.42s-1.73-13.51,3-17.33c4.37,12,21.18,7.16,32.95,10.2,10.73,2.78,17.89,13.17,24.1,22.83,6.23-2.9,6.24-13,1.9-18.53s-11.19-8-17.37-11c-17.52-8.59-31.87-24.2-39.5-43-1.22-3-2.28-6.3-1.52-9.45,1.76-7.26,11.72-8.28,17.8-4.43s10.09,10.56,15.94,14.79a7.24,7.24,0,0,0,4.09,1.69c4.59,0,5.92-7.34,3.25-11.3s-7.28-5.84-10.7-9.08-5.28-9.66-1.65-12.64l19,12-21.43-58.59c-4.62-12.63-9.51-25.7-18.8-35-9.5-9.54-22.56-14.06-32.85-22.63-10.9-9.08-18.07-22.1-26.13-34a221,221,0,0,0-43.05-47.34c-8.85-7.25-19.77-14.08-30.63-11.2-11.21,3-17.88,15.2-21.11,26.94s-4.46,24.4-10.64,34.74c5.85,9.49,1.43,24.15-8.54,28.3-8.92,3.71-18.8-.46-28.18-2.58a66.3,66.3,0,0,0-39.86,3.49c-20.17,8.37-35.42,26-49.91,43,13.31-7.28,22.8-20.63,35.63-28.82,19.43-12.39,43.66-11.41,66.31-10,5.51.33,11.3.77,15.89,4s7.25,10.31,4.09,15.09c-1.79,2.72-4.92,4-7.85,5.2l-32,12.66A11.33,11.33,0,0,1,245,561a56.56,56.56,0,0,0-26.95,11.56l29.83,3.07c4.71.48,9.51,1,14.12-.18,8.86-2.21,16.42-10.27,25.49-9.43.12,3.43-1.61,6.59-3.29,9.53-5,8.69-10.12,17.62-17.84,23.66s-18.72,8.55-27,3.38c-3.76-2.36-6.71-6.11-10.76-7.86-8.13-3.52-17.27,2.35-22.94,9.46s-9.8,15.83-17,21.12-19.36,4.84-22.67-3.77c-2-5.33.1-11.31.6-17s-2.42-13.07-7.85-12.67c1,10.39-2.43,22.43-11.45,26.65s-21.84-5.84-17.71-15.32c1.51-3.47,4.84-6.19,5-10,.16-4.26-4.14-7.55-8.17-7.46s-7.64,2.62-10.7,5.39c-7.79-4.79-7.15-17.75-1.34-25s14.76-10.63,22.92-14.66,16.56-10,18.82-19.18c.7-2.84.56-6.31-1.6-8.15,3.75,1.3,7.48-2.64,8.45-6.69s.3-8.37,1.09-12.47c2.76-14.15,19.81-18.06,33.43-19l5.43-.38c-10.7-2.65-16.36-18-10.17-27.65L238,476.08c3.54,1.42,7.71,2.79,10.9.65,2-1.37,3.11-3.84,4.27-6.08,7.47-14.44,23.35-23.49,38.86-22.14-6.68-5.33-15.82.48-23.11,4.81a64.52,64.52,0,0,1-57.07,4.2c-9.82-4.07-21.21-10.52-30-4.34-3.79,2.67-6,7.16-8.06,11.46l-11.29,23.6c-2.38,5-4.87,10.11-8.87,13.75C135.27,518.74,100.59,494.17,84.56,513.44Zm311.26,298.3a17,17,0,0,1-2.13,5.37A50.88,50.88,0,0,1,381.11,832l1.54-1.55c-4.74-5.2-3.35-13.86-.16-20.25S390.38,798,391.7,791c1.09-5.87.29-13.27,5.07-16.48,1.82,8.82-2.8,17.87-1.89,26.84C395.23,804.81,396.41,808.29,395.82,811.74Zm25.31-61.39a5.21,5.21,0,0,1,2.92-.88,5.91,5.91,0,0,1,3.26,2c2.76,2.62,5.6,5.36,7.13,8.94s1.41,8.26-1.3,11c-1.54,1.53-3.78,2.32-4.82,4.27-1.49,2.76.18,6.17,1.82,8.84l14.3,23.33c1.3,2.12,2.28,5.58.11,6.63q-10.76-14.13-20.73-28.9a4.06,4.06,0,0,0-3.23,1.15c-2.83-.82-2.42-5.39-4.38-7.7-2.45-2.9-7.26-1-10.4-3.05-2.62-1.68-3.18-5.67-2.06-8.69s3.48-5.31,5.76-7.48C413.14,756.25,416.81,752.76,421.13,750.35Zm16.12-96.78c1.54,2.54,3.93,4.38,5.74,6.72a34.85,34.85,0,0,1,3.77,6.81l4.24,9.21a54.7,54.7,0,0,1-21.41-13.69l3,1.31-4.29-2.12c-.22,4.78,3.52,9,3.43,13.75-.08,3.88-2.63,7.13-4.24,10.62a22.89,22.89,0,0,0-1.6,13.92c.5,2.49,1.42,4.9,1.53,7.45s-.86,5.39-3.07,6.4c-4-1.13-6.2-6-6.2-10.44s1.54-8.66,2.34-13,.69-9.31-2.11-12.6c-2.06-2.44-5.21-3.5-7.59-5.59-2.77-2.43-4.3-6-5.75-9.52-.7-1.68-1.41-3.5-1.05-5.3a9,9,0,0,1,2.64-4.17c3.33-3.56,7.8-7.42,12.26-5.75,2.06.77,3.92,2.7,6.08,2.3,3.53-.65,3.41-6.06,2.26-9.65s-1.68-8.83,1.74-10C435.78,634.85,432.9,646.41,437.25,653.57Zm4.1-121.65a2.67,2.67,0,0,1,2.25,1c6.5,6.33,8.39,16.22,12.51,24.49,2.62,5.25,6.21,10,8.33,15.46s2.49,12.33-1.07,16.92l2-1.07c-4.84,5.4-1.29,14.91-4.91,21.3a9.47,9.47,0,0,1-10.83,4.4,10.26,10.26,0,0,1-6.66-10.05c.24-4.93,3.89-9.53,2.79-14.33-.87-3.79-4.34-6.1-6.93-8.88-5.55-6-7.28-15-6.39-23.35s4.08-16.15,7.23-23.84C440,533.12,440.46,532.12,441.35,531.92Zm-75.21,59.14c3-1.84,6.82-3.33,9.91-1.61,2.1,1.17,3.31,3.53,4.5,5.7,3.6,6.53,8.4,12.69,14.93,15.75s15,2.29,19.77-3.38a69.23,69.23,0,0,1-15.16,42.12c-2,2.5-4.31,4.95-5.33,8.07-3.28,10,7.5,19.43,7.4,30,0,4.66-2.24,9.13-1.89,13.77.67,8.88,10,14.25,12.74,22.67,2.33,7.09-.56,15.15-5.4,20.64-4.08,4.63-9.36,7.79-14.73,10.65-.11.51-.23,1-.37,1.52l-2.62.05,3-1.58a37.35,37.35,0,0,0-5.73-29.24c-1.17-1.65-2.55-3.36-2.62-5.43-.17-5.06,6.86-6.67,8.92-11.24,1-2.32.64-5,.21-7.58l-10-58.43c-1.06-6.19-2.17-12.54-5.23-17.94-6.43-11.33-21.74-15.79-32.75-9.53A49.9,49.9,0,0,1,366.15,591.07ZM216,606.51a12.15,12.15,0,0,1,6.27-1c6.46.21,14.34,2.24,16,8.86-.89,4-6.37,3.45-10.23,4.24s-6.92,3.82-10.07,6.33-7.14,4.68-10.9,3.43L204.28,630q3.15-7.91,6.35-15.79C211.85,611.24,213.27,608,216,606.51Z"/>
      </g>
      <rect class="cls-7" y="614.69" width="419.53" height="595.95"/>
    </g>
  </g>
</svg>
