<svg xmlns="http://www.w3.org/2000/svg" xmlns:xlink="http://www.w3.org/1999/xlink" width="148mm" height="210mm" viewBox="0 0 419.53 595.28">
  <defs>
    <style>
      .cls-1, .cls-6 {
        fill: none;
      }

      .cls-2, .cls-4 {
        fill: #fff;
      }

      .cls-2, .cls-6 {
        stroke: #141412;
        stroke-miterlimit: 10;
      }

      .cls-3 {
        clip-path: url(#clip-path);
      }

      .cls-5 {
        clip-path: url(#clip-path-2);
      }

      .cls-7 {
        clip-path: url(#clip-path-3);
      }
    </style>
    <clipPath id="clip-path">
      <rect class="cls-1" x="439.53" y="-615.28" width="419.53" height="593.88"/>
    </clipPath>
    <clipPath id="clip-path-2">
      <rect class="cls-2" y="-615.87" width="419.53" height="595.95"/>
    </clipPath>
    <clipPath id="clip-path-3">
      <rect class="cls-1" y="0.96" width="419.53" height="594.32"/>
    </clipPath>
  </defs>
  <title>Plan de travail 3</title>
  <g id="Calque_2" data-name="Calque 2">
    <g>
      <rect class="cls-4" y="-615.87" width="419.53" height="595.95"/>
      <g class="cls-5">
        <g>
          <path class="cls-2" d="M127,50.4l.33-.1-.61-.23Z"/>
          <path class="cls-2" d="M421.24-143.93c-11.52,4.87-18.73,20.28-31.18,19.09-11.28-1.07-16.06-15.53-14.17-26.71s7.66-21.88,6.62-33.17c-.44-4.78-2.06-9.78-.22-14.21,2.92-7,12.23-8.08,19.82-8.07-4.85-16-4.63-33.08-2.93-49.7a290.15,290.15,0,0,1,11-54.82c-11.89,5-16,19.61-17.12,32.44s-1.1,26.94-9.42,36.77c-2.82,3.33-6.66,6.33-7.22,10.67-.29,2.24.39,4.47.72,6.7,1.69,11.3-5.23,21.9-11.82,31.23-3.45,4.89-7.58,10.2-13.51,11s-12.14-6.83-8-11.14a17,17,0,0,1-13.76-4.44,27.23,27.23,0,0,0,6.68-26.52C334-234.18,326.33-241.19,319-247.7c-2.67,2.38-1.2,6.93,1.31,9.47s5.92,4.35,7.51,7.55c4.47,9-8.27,16.94-10.89,26.62-1.12,4.13-.32,8.69-2,12.61-1.09,2.48-3.08,4.44-5,6.33l-14.42,14c.72-7.65-5.94-15.19-13.62-15.42,6.09,15.32,1.73,32.87-5.46,47.71s-17.12,28.34-22.94,43.76c-2,5.26-4.29,11.5-9.73,12.9a22.43,22.43,0,0,1,4,26.65,15.49,15.49,0,0,1-12.54-7.62l-2.47,5.9-9-.12a80.18,80.18,0,0,0-10.63-36.4,4.18,4.18,0,0,0-5.16,4.34A116.86,116.86,0,0,1,201.64-31a6.49,6.49,0,0,1-2.06,3.22c-1.51,1-3.54.67-5.31.2a95.35,95.35,0,0,1-59.13-46.77c-2.24-4.21-4.71-9.05-9.32-10.24L122.94-73.2c-5.66-18.53-31.07-24.17-39-41.84-2.63-5.85-3.25-12.86-7.77-17.41-3.24-3.27-8.31-5-9.9-9.37-.89-2.42-.44-5.13-1-7.65-1.58-7.47-10.39-10.39-17.65-12.74S32-170,33.4-177.47a6.51,6.51,0,0,0-6.31,3.93A7.16,7.16,0,0,1,21-179.31a9.32,9.32,0,0,0-6.93,1.93,232.36,232.36,0,0,0,42.44,30.73c2.58,8.16,1,17,1,25.53s2.36,18.22,9.84,22.39c4.68,2.61,12.19,6.36,9,10.64-1,1.3-2.69,1.77-4.28,2.1A71.38,71.38,0,0,1,34.2-88.37C22.09-92.56,8.78-100-2.54-94A267.44,267.44,0,0,0,62-59.9C59.66-53.55,67.55-48,74.3-47.54s14.18-1.11,19.8,2.65a5.9,5.9,0,0,1,2.35,2.65c1.18,3.09-2,6.26-5.16,7.11s-6.67.39-9.79,1.49c-4.44,1.56-7.41,6-11.81,7.61-3.64,1.37-7.69.67-11.52,0l-40.05-7.5c-3.05,2.42.42,7.53,4.25,8.22s8-.59,11.57.95c3,1.29,4.92,4.31,7.68,6.07,4.13,2.64,9.44,2.13,14.31,1.52l40.26-5c5-.62,10.17-1.22,14.94.35s9,6,8.62,11C110.2-14,103.72-.87,95.38,4.94c-7.61,5.3-17.76,4.35-27,3.19-1.74,5.44,4.26,10.74,10,10.92s10.94-2.87,16.18-5.17a67.25,67.25,0,0,1,47.49-2.32c2.45.8,5,1.87,6.46,4,3.34,4.92-1.58,11.72-7.25,13.52s-11.88.82-17.65,2.27a6.27,6.27,0,0,0-3.27,1.69c-2.55,2.89,1.08,7.58,4.92,8s7.51-1.52,11.34-2,8.68,1.74,8.43,5.59l-17.68,5.64L174.1,67.55c10.08,3.72,20.57,7.5,31.27,6.54,10.95-1,20.89-6.82,31.7-8.8,11.45-2.1,23.18.22,34.76,1.42a179.29,179.29,0,0,0,52.06-2.26c9.23-1.77,19.35-5.06,23.67-13.4,4.46-8.61.88-19.23-4.3-27.42S331.22,8,328.5-1.3c-8.89-1.3-15.16-11.77-12.09-20.22,2.75-7.57,10.71-11.59,17.18-16.38a58.66,58.66,0,0,0,20.06-26.92c6.22-17.08,4.21-35.92,2.13-54-3.06,12.2-.38,25.18-2.64,37.55-3.42,18.73-17.45,33.46-30.85,47-3.26,3.29-6.73,6.71-11.21,7.9s-10.15-.85-11.25-5.34c-.62-2.56.33-5.21,1.27-7.67l10.22-26.76a8.83,8.83,0,0,1-7.43-1.77,48.92,48.92,0,0,0,8.08-23L293.58-73.76c-2.9,2.71-5.85,5.48-7.73,9-3.61,6.73-3,15.72-8.54,21-2.11-1.72-3-4.47-3.84-7.07-2.42-7.69-4.86-15.61-4.17-23.64s5.31-16.27,13-18.75c3.49-1.13,7.36-1,10.65-2.65,6.61-3.27,8.19-12.1,7.11-19.4s-4-14.48-3.1-21.8,7.87-14.73,14.83-12.29c4.31,1.51,6.67,6,9.81,9.32s9.12,5.33,11.9,1.71c-6.73-4.82-12-13.3-9.49-21.19s15.6-10.68,18.95-3.11c1.22,2.77,1,6.29,3.19,8.38,2.45,2.34,6.79,1.36,9-1.23s2.69-6.18,2.73-9.57c7.17-2.39,14.52,4.81,15.63,12.29s-1.87,14.86-4,22.12-3.28,15.65,1,21.91c1.31,1.93,3.44,3.66,5.74,3.27-2.86,1.68-2.58,6.09-.71,8.83s4.81,4.58,6.81,7.23c6.88,9.16-.25,21.94-7.25,31l-2.79,3.62c7.52-5.35,19.82-.83,22.09,8.1l-36,19c-2.81,1.48-5.94,3.39-6.44,6.52-.32,2,.56,4,1.25,5.88a34.83,34.83,0,0,1-8.4,36.07c6.87-1.41,8.5-10.21,10-17.07a56.93,56.93,0,0,1,29.19-38.12c7.87-4,18-7.83,19.24-16.6.52-3.79-.92-7.54-2.34-11.09L393-81.64c-1.64-4.12-3.31-8.37-3.26-12.8C389.94-114.79,423.8-123.73,421.24-143.93ZM71-104.54a13.07,13.07,0,0,1-2-4.16,41,41,0,0,1-1.86-15.72l.07,1.78c5.72-.25,10.1,5.17,12.13,10.52s2.84,11.34,6.32,15.89c2.89,3.77,7.73,7.15,7,11.84-6.26-3.48-9.07-11.14-14.92-15.27C75.45-101.27,72.72-102.35,71-104.54ZM93.47-56.4a4.56,4.56,0,0,1-1.09,2.3,5,5,0,0,1-3,1c-3.09.36-6.3.71-9.27-.2s-5.69-3.45-5.79-6.56c-.06-1.77.71-3.6.14-5.27-.82-2.39-3.77-3.12-6.27-3.49L46.38-71.84c-2-.29-4.59-1.49-4-3.41q14.38.64,28.7,2.12a3.52,3.52,0,0,0,1.11-2.64c2.06-1.35,4.55,1.3,7,1.29,3.08,0,4.64-4,7.59-4.94,2.46-.77,5.14,1,6.31,3.26s1.23,5,1.25,7.55A50.1,50.1,0,0,1,93.47-56.4ZM142.08,4.53c-2.37-.36-4.79.18-7.18.08a27.24,27.24,0,0,1-6.14-1.2l-7.83-2.16a46.31,46.31,0,0,1,20-6.29l-2.46,1.22,3.64-1.59c-2.72-2.64-7.29-2.49-10.08-5.06-2.26-2.09-2.78-5.39-4-8.24A17.25,17.25,0,0,0,120.69-27c-1.76-1-3.71-1.68-5.28-2.95s-2.72-3.37-2.1-5.29c2.92-2,7-.74,9.66,1.57s4.3,5.52,6.44,8.3,5.16,5.31,8.67,5.29c2.6,0,5-1.44,7.54-1.84,3-.47,6,.46,8.85,1.38a7.11,7.11,0,0,1,3.74,2.11,7.1,7.1,0,0,1,1,3.85c.26,4,.08,8.8-3.39,10.74-1.6.9-3.78,1.05-4.74,2.62-1.57,2.56,1.71,5.33,4.48,6.49s6.19,3.58,5,6.32C154,13.43,148.75,5.55,142.08,4.53Zm70.09,66.41a2.3,2.3,0,0,1-1.86.87c-7.37.77-14.3-3.23-21.51-5-4.58-1.11-9.37-1.32-13.82-2.87s-8.72-4.9-9.47-9.55l-.44,1.79c-.52-5.88-8.16-8.64-9.94-14.27a7.91,7.91,0,0,1,13.07-8c2.8,2.74,3.51,7.45,7,9.27,2.73,1.44,6,.47,9.13.3,6.63-.36,13,3.3,17.43,8.23s7.34,11,10.16,17.06A2.47,2.47,0,0,1,212.16,70.94Zm6.57-78.37c-.58,2.87-1.8,6-4.54,7.08-1.86.71-3.94.23-5.89-.16C202.42-1.67,196.1-1.87,190.65.63s-9.71,8.27-9,14.22A53.09,53.09,0,0,1,165-16.8c-.36-2.6-.55-5.31-1.84-7.59-4.12-7.3-15.72-5.47-22-11.08-2.74-2.47-4.19-6.2-7.14-8.42-5.66-4.24-14-1.2-20.56-3.88C108-50,104.85-56.07,104.27-62c-.48-5,.56-10,1.84-14.86-.24-.34-.48-.68-.7-1l1.42-1.68q-.37,1.35-.72,2.71a28.31,28.31,0,0,0,20.57,11.74c1.63.13,3.42.16,4.68,1.2,3.1,2.55.16,7.82,1.73,11.51.8,1.88,2.65,3.05,4.39,4.11L177.78-23.9c4.27,2.59,8.66,5.22,13.57,6.12,10.31,1.9,21.46-5.4,23.85-15.61A40.14,40.14,0,0,1,218.74-7.43ZM292.9-110a10.73,10.73,0,0,1-2.89,4.46c-3.71,4-9.29,7.85-14.12,5.39-1.91-2.68,1.49-5.82,3.16-8.66s1.57-6.36,1.83-9.66,1.18-7,4-8.66l.55-2.6q3,6.13,5.87,12.28C292.4-115.13,293.54-112.54,292.9-110Z"/>
        </g>
        <path class="cls-2" d="M99.93,54.53c-4.31.92-7.35-4.32-7.76-8.7s0-9.43-3.09-12.52c-.85-.84-2.37-1.41-3.16-.51A2.64,2.64,0,0,0,85.42,34l-1.87,8.86c-3.84,1.28-7.84-1.18-11.14-3.53l-14-9.94c-8.51-6.05-17.64-12.33-28.07-13A13,13,0,0,0,33.9,28a15.54,15.54,0,0,0,11.38,4.42c2.27-.06,5.19-.23,6.13,1.84.63,1.38-.09,3-.55,4.42s-.41,3.43,1,4a3.73,3.73,0,0,0,1.24.22A42.61,42.61,0,0,1,79,54.19a9.76,9.76,0,0,1-5.25,4.67V61l17.6.17a5.44,5.44,0,0,0,3-.57c1.87-1.21,2.49-4.69,4.68-4.26"/>
        <path class="cls-2" d="M330.51,29.39c-.54-3.53-1.08-7.16-.34-10.65s3-6.89,6.48-7.88c5.14-1.48,10,2.69,13.76,6.52,2.75-5.14,7.33-9.56,13-10.88s12.36,1.16,14.82,6.45c1.54,3.32,1.36,7.33,3.37,10.38,4,6.14,14,4.8,19.19,10s3.52,14.76,8.77,19.9c3.18,3.12,8,3.68,12.18,5.17a27,27,0,0,1,14.87,13.06"/>
        <g>
          <path class="cls-2" d="M127,50.4l.33-.1-.61-.23Z"/>
          <path class="cls-2" d="M421.24-143.93c-11.52,4.87-18.73,20.28-31.18,19.09-11.28-1.07-16.06-15.53-14.17-26.71s7.66-21.88,6.62-33.17c-.44-4.78-2.06-9.78-.22-14.21,2.92-7,12.23-8.08,19.82-8.07-4.85-16-4.63-33.08-2.93-49.7a290.15,290.15,0,0,1,11-54.82c-11.89,5-16,19.61-17.12,32.44s-1.1,26.94-9.42,36.77c-2.82,3.33-6.66,6.33-7.22,10.67-.29,2.24.39,4.47.72,6.7,1.69,11.3-5.23,21.9-11.82,31.23-3.45,4.89-7.58,10.2-13.51,11s-12.14-6.83-8-11.14a17,17,0,0,1-13.76-4.44,27.23,27.23,0,0,0,6.68-26.52C334-234.18,326.33-241.19,319-247.7c-2.67,2.38-1.2,6.93,1.31,9.47s5.92,4.35,7.51,7.55c4.47,9-8.27,16.94-10.89,26.62-1.12,4.13-.32,8.69-2,12.61-1.09,2.48-3.08,4.44-5,6.33l-14.42,14c.72-7.65-5.94-15.19-13.62-15.42,6.09,15.32,1.73,32.87-5.46,47.71s-17.12,28.34-22.94,43.76c-2,5.26-4.29,11.5-9.73,12.9a22.43,22.43,0,0,1,4,26.65,15.49,15.49,0,0,1-12.54-7.62l-2.47,5.9-9-.12a80.18,80.18,0,0,0-10.63-36.4,4.18,4.18,0,0,0-5.16,4.34A116.86,116.86,0,0,1,201.64-31a6.49,6.49,0,0,1-2.06,3.22c-1.51,1-3.54.67-5.31.2a95.35,95.35,0,0,1-59.13-46.77c-2.24-4.21-4.71-9.05-9.32-10.24L122.94-73.2c-5.66-18.53-31.07-24.17-39-41.84-2.63-5.85-3.25-12.86-7.77-17.41-3.24-3.27-8.31-5-9.9-9.37-.89-2.42-.44-5.13-1-7.65-1.58-7.47-10.39-10.39-17.65-12.74S32-170,33.4-177.47a6.51,6.51,0,0,0-6.31,3.93A7.16,7.16,0,0,1,21-179.31a9.32,9.32,0,0,0-6.93,1.93,232.36,232.36,0,0,0,42.44,30.73c2.58,8.16,1,17,1,25.53s2.36,18.22,9.84,22.39c4.68,2.61,12.19,6.36,9,10.64-1,1.3-2.69,1.77-4.28,2.1A71.38,71.38,0,0,1,34.2-88.37C22.09-92.56,8.78-100-2.54-94A267.44,267.44,0,0,0,62-59.9C59.66-53.55,67.55-48,74.3-47.54s14.18-1.11,19.8,2.65a5.9,5.9,0,0,1,2.35,2.65c1.18,3.09-2,6.26-5.16,7.11s-6.67.39-9.79,1.49c-4.44,1.56-7.41,6-11.81,7.61-3.64,1.37-7.69.67-11.52,0l-40.05-7.5c-3.05,2.42.42,7.53,4.25,8.22s8-.59,11.57.95c3,1.29,4.92,4.31,7.68,6.07,4.13,2.64,9.44,2.13,14.31,1.52l40.26-5c5-.62,10.17-1.22,14.94.35s9,6,8.62,11C110.2-14,103.72-.87,95.38,4.94c-7.61,5.3-17.76,4.35-27,3.19-1.74,5.44,4.26,10.74,10,10.92s10.94-2.87,16.18-5.17a67.25,67.25,0,0,1,47.49-2.32c2.45.8,5,1.87,6.46,4,3.34,4.92-1.58,11.72-7.25,13.52s-11.88.82-17.65,2.27a6.27,6.27,0,0,0-3.27,1.69c-2.55,2.89,1.08,7.58,4.92,8s7.51-1.52,11.34-2,8.68,1.74,8.43,5.59l-17.68,5.64L174.1,67.55c10.08,3.72,20.57,7.5,31.27,6.54,10.95-1,20.89-6.82,31.7-8.8,11.45-2.1,23.18.22,34.76,1.42a179.29,179.29,0,0,0,52.06-2.26c9.23-1.77,19.35-5.06,23.67-13.4,4.46-8.61.88-19.23-4.3-27.42S331.22,8,328.5-1.3c-8.89-1.3-15.16-11.77-12.09-20.22,2.75-7.57,10.71-11.59,17.18-16.38a58.66,58.66,0,0,0,20.06-26.92c6.22-17.08,4.21-35.92,2.13-54-3.06,12.2-.38,25.18-2.64,37.55-3.42,18.73-17.45,33.46-30.85,47-3.26,3.29-6.73,6.71-11.21,7.9s-10.15-.85-11.25-5.34c-.62-2.56.33-5.21,1.27-7.67l10.22-26.76a8.83,8.83,0,0,1-7.43-1.77,48.92,48.92,0,0,0,8.08-23L293.58-73.76c-2.9,2.71-5.85,5.48-7.73,9-3.61,6.73-3,15.72-8.54,21-2.11-1.72-3-4.47-3.84-7.07-2.42-7.69-4.86-15.61-4.17-23.64s5.31-16.27,13-18.75c3.49-1.13,7.36-1,10.65-2.65,6.61-3.27,8.19-12.1,7.11-19.4s-4-14.48-3.1-21.8,7.87-14.73,14.83-12.29c4.31,1.51,6.67,6,9.81,9.32s9.12,5.33,11.9,1.71c-6.73-4.82-12-13.3-9.49-21.19s15.6-10.68,18.95-3.11c1.22,2.77,1,6.29,3.19,8.38,2.45,2.34,6.79,1.36,9-1.23s2.69-6.18,2.73-9.57c7.17-2.39,14.52,4.81,15.63,12.29s-1.87,14.86-4,22.12-3.28,15.65,1,21.91c1.31,1.93,3.44,3.66,5.74,3.27-2.86,1.68-2.58,6.09-.71,8.83s4.81,4.58,6.81,7.23c6.88,9.16-.25,21.94-7.25,31l-2.79,3.62c7.52-5.35,19.82-.83,22.09,8.1l-36,19c-2.81,1.48-5.94,3.39-6.44,6.52-.32,2,.56,4,1.25,5.88a34.83,34.83,0,0,1-8.4,36.07c6.87-1.41,8.5-10.21,10-17.07a56.93,56.93,0,0,1,29.19-38.12c7.87-4,18-7.83,19.24-16.6.52-3.79-.92-7.54-2.34-11.09L393-81.64c-1.64-4.12-3.31-8.37-3.26-12.8C389.94-114.79,423.8-123.73,421.24-143.93ZM71-104.54a13.07,13.07,0,0,1-2-4.16,41,41,0,0,1-1.86-15.72l.07,1.78c5.72-.25,10.1,5.17,12.13,10.52s2.84,11.34,6.32,15.89c2.89,3.77,7.73,7.15,7,11.84-6.26-3.48-9.07-11.14-14.92-15.27C75.45-101.27,72.72-102.35,71-104.54ZM93.47-56.4a4.56,4.56,0,0,1-1.09,2.3,5,5,0,0,1-3,1c-3.09.36-6.3.71-9.27-.2s-5.69-3.45-5.79-6.56c-.06-1.77.71-3.6.14-5.27-.82-2.39-3.77-3.12-6.27-3.49L46.38-71.84c-2-.29-4.59-1.49-4-3.41q14.38.64,28.7,2.12a3.52,3.52,0,0,0,1.11-2.64c2.06-1.35,4.55,1.3,7,1.29,3.08,0,4.64-4,7.59-4.94,2.46-.77,5.14,1,6.31,3.26s1.23,5,1.25,7.55A50.1,50.1,0,0,1,93.47-56.4ZM142.08,4.53c-2.37-.36-4.79.18-7.18.08a27.24,27.24,0,0,1-6.14-1.2l-7.83-2.16a46.31,46.31,0,0,1,20-6.29l-2.46,1.22,3.64-1.59c-2.72-2.64-7.29-2.49-10.08-5.06-2.26-2.09-2.78-5.39-4-8.24A17.25,17.25,0,0,0,120.69-27c-1.76-1-3.71-1.68-5.28-2.95s-2.72-3.37-2.1-5.29c2.92-2,7-.74,9.66,1.57s4.3,5.52,6.44,8.3,5.16,5.31,8.67,5.29c2.6,0,5-1.44,7.54-1.84,3-.47,6,.46,8.85,1.38a7.11,7.11,0,0,1,3.74,2.11,7.1,7.1,0,0,1,1,3.85c.26,4,.08,8.8-3.39,10.74-1.6.9-3.78,1.05-4.74,2.62-1.57,2.56,1.71,5.33,4.48,6.49s6.19,3.58,5,6.32C154,13.43,148.75,5.55,142.08,4.53Zm70.09,66.41a2.3,2.3,0,0,1-1.86.87c-7.37.77-14.3-3.23-21.51-5-4.58-1.11-9.37-1.32-13.82-2.87s-8.72-4.9-9.47-9.55l-.44,1.79c-.52-5.88-8.16-8.64-9.94-14.27a7.91,7.91,0,0,1,13.07-8c2.8,2.74,3.51,7.45,7,9.27,2.73,1.44,6,.47,9.13.3,6.63-.36,13,3.3,17.43,8.23s7.34,11,10.16,17.06A2.47,2.47,0,0,1,212.16,70.94Zm6.57-78.37c-.58,2.87-1.8,6-4.54,7.08-1.86.71-3.94.23-5.89-.16C202.42-1.67,196.1-1.87,190.65.63s-9.71,8.27-9,14.22A53.09,53.09,0,0,1,165-16.8c-.36-2.6-.55-5.31-1.84-7.59-4.12-7.3-15.72-5.47-22-11.08-2.74-2.47-4.19-6.2-7.14-8.42-5.66-4.24-14-1.2-20.56-3.88C108-50,104.85-56.07,104.27-62c-.48-5,.56-10,1.84-14.86-.24-.34-.48-.68-.7-1l1.42-1.68q-.37,1.35-.72,2.71a28.31,28.31,0,0,0,20.57,11.74c1.63.13,3.42.16,4.68,1.2,3.1,2.55.16,7.82,1.73,11.51.8,1.88,2.65,3.05,4.39,4.11L177.78-23.9c4.27,2.59,8.66,5.22,13.57,6.12,10.31,1.9,21.46-5.4,23.85-15.61A40.14,40.14,0,0,1,218.74-7.43ZM292.9-110a10.73,10.73,0,0,1-2.89,4.46c-3.71,4-9.29,7.85-14.12,5.39-1.91-2.68,1.49-5.82,3.16-8.66s1.57-6.36,1.83-9.66,1.18-7,4-8.66l.55-2.6q3,6.13,5.87,12.28C292.4-115.13,293.54-112.54,292.9-110Z"/>
        </g>
      </g>
      <rect class="cls-6" y="-615.87" width="419.53" height="595.95"/>
    </g>
    <g class="cls-7">
      <line class="cls-6" x1="171.79" y1="311" x2="61.11" y2="422.08"/>
      <line class="cls-6" x1="196.5" y1="289.08" x2="96.78" y2="429.31"/>
      <line class="cls-6" x1="192.35" y1="297.64" x2="99.96" y2="449.88"/>
      <line class="cls-6" x1="198.19" y1="292.04" x2="113.5" y2="459.57"/>
      <line class="cls-6" x1="196.88" y1="296.31" x2="126.42" y2="453.23"/>
      <line class="cls-6" x1="185.98" y1="328.21" x2="136.35" y2="460.17"/>
      <line class="cls-6" x1="183.19" y1="302.32" x2="72.3" y2="426.7"/>
      <path class="cls-2" d="M38.91,454.59C27.53,447.12,25,429.2,33.82,418.85s26.95-10.61,36.09-.53a25.32,25.32,0,0,1,43.69-7.72c3.53,4.38,5.51,10.6,3.15,15.7,5.95-1.15,12.26-1.34,17.9.87s10.46,7.17,11.22,13.18-3.46,12.59-9.47,13.31c8.52,1.27,17.74,3.68,22.73,10.71s1.86,19.55-6.73,20.18a23.08,23.08,0,0,1-13,41.77,29.24,29.24,0,0,1-47.13,17.78c-3.77,3.52-8.64,7.32-13.54,5.71a12.8,12.8,0,0,1-5-3.57,53.21,53.21,0,0,1-12.09-20c-6.77,2.34-14.49,3.26-20.92.12S30.07,515,33.24,508.58c-11,.71-22.74-2.42-30.26-10.49s-9.52-21.57-2.77-30.3C-5.9,464-4.63,454,.8,449.24s13.1-5.6,20.27-6.26c-2.6-3-3.73-7.49-2-11s6.82-5.31,10-3"/>
      <path class="cls-6" d="M347,189.79c-6.19-4.06-7.58-13.82-2.77-19.45s14.67-5.78,19.65-.29a13.79,13.79,0,0,1,23.79-4.2c1.92,2.39,3,5.77,1.72,8.55a17.64,17.64,0,0,1,9.75.47c3.07,1.2,5.69,3.91,6.11,7.18s-1.88,6.86-5.16,7.25c4.64.69,9.66,2,12.38,5.83s1,10.64-3.67,11a12.56,12.56,0,0,1-7.09,22.74,15.92,15.92,0,0,1-25.66,9.68c-2.05,1.92-4.71,4-7.37,3.11A7,7,0,0,1,366,239.7a29,29,0,0,1-6.58-10.87c-3.68,1.27-7.89,1.77-11.39.06s-5.8-6.2-4.07-9.7c-6,.39-12.38-1.32-16.48-5.71S322.29,201.73,326,197c-3.32-2.08-2.63-7.53.32-10.1s7.13-3,11-3.41a5.64,5.64,0,0,1-1.07-6c1-1.93,3.71-2.89,5.45-1.61"/>
      <line class="cls-6" x1="283.97" y1="381.8" x2="322.81" y2="468.53"/>
      <line class="cls-6" x1="274.59" y1="350.23" x2="343.85" y2="441.41"/>
      <line class="cls-6" x1="272.21" y1="344.88" x2="362.4" y2="441.92"/>
      <line class="cls-6" x1="278.59" y1="347.29" x2="376.19" y2="432.65"/>
      <line class="cls-6" x1="284.13" y1="350.19" x2="376.31" y2="421.51"/>
      <line class="cls-6" x1="298.15" y1="357.05" x2="386.3" y2="414.69"/>
      <line class="cls-6" x1="282.81" y1="369.05" x2="331.38" y2="460.37"/>
      <line class="cls-6" x1="301.92" y1="186.06" x2="400.69" y2="108.12"/>
      <line class="cls-6" x1="280.06" y1="197.61" x2="367.8" y2="95.42"/>
      <line class="cls-6" x1="272.52" y1="204.71" x2="365.39" y2="75.99"/>
      <line class="cls-6" x1="268.59" y1="207.09" x2="353.09" y2="64.8"/>
      <line class="cls-6" x1="283.58" y1="177.74" x2="340.95" y2="68.42"/>
      <line class="cls-6" x1="291.88" y1="151.76" x2="331.92" y2="60.36"/>
      <line class="cls-6" x1="287.19" y1="193.51" x2="390.43" y2="101.97"/>
      <line class="cls-6" x1="96.85" y1="106.06" x2="38.43" y2="22.26"/>
      <line class="cls-6" x1="101.9" y1="119.54" x2="22.28" y2="51.96"/>
      <line class="cls-6" x1="106.32" y1="124.38" x2="4.78" y2="56.04"/>
      <line class="cls-6" x1="104.78" y1="125.65" x2="-6.95" y2="67.81"/>
      <line class="cls-6" x1="95.75" y1="122.18" x2="-5.58" y2="77.92"/>
      <line class="cls-6" x1="88.79" y1="121.31" x2="-14.05" y2="86.54"/>
      <line class="cls-6" x1="101.27" y1="117.15" x2="31.47" y2="31.75"/>
      <path class="cls-6" d="M161.55,582.55c-10.2-5.11-10.83-19.9-1.26-29.48s27-11.66,34.82-4.13c3.67-7.46,11.85-13.85,20.56-16.08s17.59-.18,22.32,5.14c3,3.32,4.23,8.33,1.44,12.86,5.84-1.57,12-2.38,17.16-1.1s9.34,5,9.46,9.92-4.61,10.93-10.48,12.15c8.08.2,16.72,1.28,20.8,6.68s-.2,16.23-8.55,17.63c6.91,3.93,9.27,12.62,5.59,20.6s-13.13,14.65-22.39,15.8c-2.68,8.55-10.6,16.69-20.09,20.65s-20.18,3.6-27.13-.92c-4,3.34-9.07,7-13.63,6.17a9.19,9.19,0,0,1-4.43-2.49,32.2,32.2,0,0,1-9.61-15.53c-6.76,2.65-14.29,4.21-20.16,2.23s-9.1-8.48-5.39-14.19c-10.68,1.72-21.66.29-28.08-5.72s-7-17.14.42-25.16c-5.49-2.58-3.25-11.12,2.46-15.64s13.19-6,20.16-7.33a7.19,7.19,0,0,1-.77-9.07c2.06-3.16,7.11-5.15,9.94-3.5"/>
      <path class="cls-2" d="M92.33,48.91c-1.51-3.41-4.5-6.26-4.84-10-.2-2.14.53-4.25.72-6.39.73-8.23-8.41-15.67-16.33-13.28,1.38-4.36-1.19-9.19-4.91-11.85S58.62,3.77,54.14,2.85L22.68-3.61c-4.77-1-12,0-11.45,4.89C5.72.49-.37-.18-5,2.93c-5.32,3.56-4,12.25-9.65,15.33a13.55,13.55,0,0,0-14.49-.62,13.55,13.55,0,0,0-6.34,13,14.85,14.85,0,0,0-12.05,9.25c-1.4,3.66-1.26,7.71-.78,11.62a97.49,97.49,0,0,0,4.65,19.87c3.4,9.84,8.5,20.18,17.45,25.92a28.5,28.5,0,0,0,15.16,4.48A36.69,36.69,0,0,0,1.62,114.11a9,9,0,0,0-2.94,4.81c-.31,1.41-.28,2.89-.67,4.28A28,28,0,0,1-3.67,127c-3.74,8.35,1.33,19.43,10.09,22.07,2.33.7,5,.83,7.08-.44s3.17-4.27,1.8-6.28c2.19,1.29,4.66,2.49,7.18,2.11s4.81-3,3.9-5.39c2.42-1.38,6,.93,8.08-1A4.13,4.13,0,0,0,35.53,136a10.8,10.8,0,0,0-2-8.85c1.59,1.72,4.93,1.18,6.4-.79,1.59-2.14,1.46-5.11.79-7.69a3.76,3.76,0,0,0-1.84-2.76c-.93-.38-2.05,0-3-.48a4.6,4.6,0,0,1-1.64-2.11,8.56,8.56,0,0,0-1.42-1.86,3.66,3.66,0,0,1,.82-1.89,3.93,3.93,0,0,1,2.92-.75l13.58.2a19.12,19.12,0,0,0,19.4-19.74q0-.48,0-1c6,.25,12.45-1.49,16.46-6s4.68-12.14.44-16.44A13.6,13.6,0,0,0,92.33,48.91Z"/>
      <path class="cls-2" d="M356.65,16.66c-4.1-2.4-9-4.22-13.55-3s-8.21,6.6-6.11,10.86c-9.71-.29-17.22,12-12.51,20.53a23.07,23.07,0,0,0-7.1,23.31A23.07,23.07,0,0,0,335.62,84.5c-2.91,7.44-5.68,16.37-1.11,22.92,2.12,3,5.51,4.95,8.95,6.33A45.62,45.62,0,0,0,370,116c1.34,6.25,8.76,8.72,15,10.07,4.1.88,8.54,1.73,12.34,0s6-7.34,3-10.26a74.35,74.35,0,0,0,40.5,10.35,6.81,6.81,0,0,0,4.25-1.17,6.58,6.58,0,0,0,1.81-4.08,41.25,41.25,0,0,0-1.89-20.67c11.36,3.32,24.93.34,32.17-9s5.76-25-4.29-31.2c5.94,5.62,16.85,1.43,19.89-6.16s.12-16.38-4.6-23.06A47.91,47.91,0,0,0,447.38,10.9c2-2.6,1.37-6.53-.66-9.09s-5.16-4-8.27-5A45.53,45.53,0,0,0,417.91-5c-1.32.19-2.78.53-3.54,1.62s-.08,3.08,1.25,2.94c2.7-3.12-1.62-7.45-5.43-9A78.77,78.77,0,0,0,384-15.23c-5.29-.25-12,1.08-13.19,6.23-.4,1.66-.1,3.47-.71,5.07-.87,2.27-3.27,3.48-5.25,4.88a19.85,19.85,0,0,0-8.24,16.12"/>
      <path class="cls-2" d="M454.77,436.67c-3-9.5-10.42-18.27-20.25-20-.88-14.47-18.22-25.24-31.58-19.63-4.11-3.58-8.82-7-14.26-7.35s-11.42,4-10.82,9.44a17.09,17.09,0,0,0-21.24,6.67c-3.32,5.72-3.34,13.55-8.56,17.59l.69-.7c-7.78-1.25-15.68,6.25-14.83,14.09-4.25-3.54-11.21-1.18-14.39,3.35s-3.61,10.38-3.94,15.91c-.52,8.83-1,17.78.7,26.45a40.62,40.62,0,0,0,5.64,14.18,25.73,25.73,0,0,0-8.13-2c-3.43-.39-7.14-.58-10.1,1.2-4.8,2.89-5.51,9.45-5.54,15.05,0,4.65.12,9.61,2.73,13.46s8.61,5.74,12,2.56a18.79,18.79,0,0,0,23.52,2.4c1.8,3,5.8,4,9.34,3.8s7-1.34,10.53-1.26c3.77.09,7.41,1.54,11.22,1.26a8.66,8.66,0,0,0,7.4-6.77v-.08a3.74,3.74,0,0,1,2.79-3c6.82-1.69,4.91,1.77,12.93,2a3.36,3.36,0,0,0,2.43-.92c1.49-.53,1.4-5.23,1.47-8.64.05-2.73-.09-5.21-2.1-7a21,21,0,0,0,8.87,3.23c4,.28,8.42-1.93,9.27-5.82l14-.12c12-.11,21.15-11.46,17.91-23q-.11-.41-.2-.82c-.66-3.23-.17-7.2-.66-10.41a4.5,4.5,0,0,1,4.34-5.26H446a11.32,11.32,0,0,0,11.18-11.31A60.11,60.11,0,0,0,454.77,436.67Z"/>
    </g>
  </g>
</svg>
