<svg xmlns="http://www.w3.org/2000/svg" xmlns:xlink="http://www.w3.org/1999/xlink" width="148mm" height="210mm" viewBox="0 0 419.53 595.28">
  <defs>
    <style>
      .cls-1, .cls-17 {
        fill: none;
      }

      .cls-2 {
        clip-path: url(#clip-path);
      }

      .cls-10, .cls-11, .cls-12, .cls-13, .cls-14, .cls-15, .cls-3, .cls-6, .cls-8, .cls-9 {
        fill: #fff;
      }

      .cls-10, .cls-11, .cls-12, .cls-13, .cls-14, .cls-15, .cls-17, .cls-3, .cls-6, .cls-8, .cls-9 {
        stroke: #141412;
        stroke-miterlimit: 10;
      }

      .cls-4 {
        clip-path: url(#clip-path-2);
      }

      .cls-5 {
        clip-path: url(#clip-path-3);
      }

      .cls-6 {
        stroke-width: 1.02px;
      }

      .cls-7 {
        fill: #b9b9ba;
      }

      .cls-8 {
        stroke-width: 1.27px;
      }

      .cls-9 {
        stroke-width: 0.72px;
      }

      .cls-10 {
        stroke-width: 1.89px;
      }

      .cls-11 {
        stroke-width: 1.31px;
      }

      .cls-12 {
        stroke-width: 1px;
      }

      .cls-13 {
        stroke-width: 1.26px;
      }

      .cls-14 {
        stroke-width: 1.54px;
      }

      .cls-15 {
        stroke-width: 2.18px;
      }

      .cls-16 {
        clip-path: url(#clip-path-4);
      }
    </style>
    <clipPath id="clip-path">
      <rect class="cls-1" y="-615.28" width="417.88" height="595.16"/>
    </clipPath>
    <clipPath id="clip-path-2">
      <rect class="cls-1" x="439.53" y="-615.28" width="420.63" height="595.28"/>
    </clipPath>
    <clipPath id="clip-path-3">
      <rect class="cls-1" width="419.53" height="595.28"/>
    </clipPath>
    <clipPath id="clip-path-4">
      <rect class="cls-1" x="439.53" y="615.28" width="419.53" height="595.28"/>
    </clipPath>
  </defs>
  <title>Plan de travail 16</title>
  <g id="Calque_2" data-name="Calque 2">
    <g class="cls-2">
      <path class="cls-3" d="M100.34-194.51A111.35,111.35,0,0,0-11-83.16,111.35,111.35,0,0,0,100.34,28.19,111.35,111.35,0,0,0,211.69-83.16,111.35,111.35,0,0,0,100.34-194.51Zm0,215.55A104.2,104.2,0,0,1-3.86-83.16a104.2,104.2,0,0,1,104.2-104.2,104.2,104.2,0,0,1,104.2,104.2A104.2,104.2,0,0,1,100.34,21Z"/>
      <path class="cls-3" d="M346.76-127.91A72.77,72.77,0,0,0,274-55.14a72.77,72.77,0,0,0,72.77,72.77,72.77,72.77,0,0,0,72.77-72.77A72.77,72.77,0,0,0,346.76-127.91Zm0,140.86a68.09,68.09,0,0,1-68.09-68.09,68.09,68.09,0,0,1,68.09-68.09,68.09,68.09,0,0,1,68.09,68.09A68.09,68.09,0,0,1,346.76,12.95Z"/>
    </g>
    <g class="cls-4">
      <path class="cls-3" d="M998.19-90.4a46.37,46.37,0,0,0-54-37.26A46.19,46.19,0,0,0,916-110.5a46.17,46.17,0,0,0-30.76-5A46.32,46.32,0,0,0,851-88.23a46.32,46.32,0,0,0-41.7-13.4A46.25,46.25,0,0,0,778-80,46.24,46.24,0,0,0,741-89.14,46.22,46.22,0,0,0,711.32-70a46.22,46.22,0,0,0-34.57-7.37,46.26,46.26,0,0,0-31.9,22.61A46.26,46.26,0,0,0,607-64.62a46.32,46.32,0,0,0-34.19,27.16,46.33,46.33,0,0,0-42.66-14.43,46.3,46.3,0,0,0-33.65,26A46.34,46.34,0,0,0,433.85-16a46.36,46.36,0,0,0-65,22.28,46.35,46.35,0,0,0-73,8.19,46.35,46.35,0,0,0-66.64,10,46.35,46.35,0,0,0-66.47,15.23A46.36,46.36,0,0,0,90.68,57a46.36,46.36,0,1,0,8.23,49.64,46.35,46.35,0,0,0,74.56-8.18A46.35,46.35,0,0,0,241,89.21,46.35,46.35,0,0,0,306.91,75a46.35,46.35,0,0,0,71.17-18.2A46.36,46.36,0,0,0,448,53a46.17,46.17,0,0,0,30.76,5,46.3,46.3,0,0,0,33.65-26,46.21,46.21,0,0,0,34.38,7.25A46.32,46.32,0,0,0,581,12.18,46.33,46.33,0,0,0,623.69,26.6,46.26,46.26,0,0,0,655.6,4a46.26,46.26,0,0,0,37.84,9.84A46.22,46.22,0,0,0,723.16-5.3a46.22,46.22,0,0,0,34.57,7.37A46.24,46.24,0,0,0,789-19.51,46.25,46.25,0,0,0,826-10.41a46.32,46.32,0,0,0,34.25-27.3,46.32,46.32,0,0,0,41.7,13.4,46.19,46.19,0,0,0,28.26-17.16,46.17,46.17,0,0,0,30.76,5A46.37,46.37,0,0,0,998.19-90.4Z"/>
      <circle class="cls-3" cx="1.62" cy="18.74" r="33.94" transform="translate(-3.35 0.6) rotate(-10.37)"/>
    </g>
    <g class="cls-5">
      <rect class="cls-6" x="-5.5" y="145.52" width="431.49" height="6.86"/>
      <rect class="cls-7" x="-4.65" y="152.39" width="431.49" height="23.71"/>
      <rect class="cls-8" x="-4.65" y="176.1" width="431.49" height="10.7"/>
      <rect class="cls-9" x="-3.8" y="186.8" width="431.49" height="3.43"/>
      <rect class="cls-8" x="-5.07" y="131.39" width="431.49" height="10.7"/>
      <rect class="cls-9" x="-4.22" y="142.09" width="431.49" height="3.43"/>
      <rect class="cls-6" x="-5.68" y="204.6" width="431.49" height="6.86"/>
      <rect class="cls-10" x="-4.83" y="211.46" width="431.49" height="23.71"/>
      <rect class="cls-8" x="-4.83" y="235.18" width="431.49" height="10.7"/>
      <rect class="cls-11" x="-3.98" y="245.88" width="431.49" height="11.39"/>
      <rect class="cls-8" x="-5.25" y="190.47" width="431.49" height="10.7"/>
      <rect class="cls-9" x="-4.4" y="201.17" width="431.49" height="3.43"/>
      <rect class="cls-6" x="-5.68" y="295.82" width="431.49" height="6.86"/>
      <rect class="cls-12" x="-4.83" y="289.24" width="431.49" height="6.58"/>
      <rect class="cls-8" x="-4.83" y="261.4" width="431.49" height="10.7"/>
      <rect class="cls-9" x="-3.98" y="257.97" width="431.49" height="3.43"/>
      <rect class="cls-8" x="-5.25" y="306.11" width="431.49" height="10.7"/>
      <rect class="cls-9" x="-4.4" y="302.68" width="431.49" height="3.43"/>
      <rect class="cls-7" x="-4.22" y="282.67" width="431.49" height="6.58"/>
      <rect class="cls-13" x="-4.4" y="272.1" width="431.49" height="10.57"/>
      <rect class="cls-6" x="-6.44" y="331.07" width="431.49" height="6.86"/>
      <rect class="cls-10" x="-5.59" y="337.93" width="431.49" height="23.71"/>
      <rect class="cls-8" x="-5.59" y="361.65" width="431.49" height="10.7"/>
      <rect class="cls-9" x="-4.74" y="372.35" width="431.49" height="3.43"/>
      <rect class="cls-8" x="-6.01" y="316.94" width="431.49" height="10.7"/>
      <rect class="cls-9" x="-5.16" y="327.64" width="431.49" height="3.43"/>
      <rect class="cls-6" x="-6.62" y="390.15" width="431.49" height="6.86"/>
      <rect class="cls-10" x="-5.77" y="397.01" width="431.49" height="23.71"/>
      <rect class="cls-8" x="-5.77" y="420.72" width="431.49" height="10.7"/>
      <rect class="cls-11" x="-4.92" y="431.42" width="431.49" height="11.39"/>
      <rect class="cls-7" x="-6.2" y="376.01" width="431.49" height="10.7"/>
      <rect class="cls-9" x="-5.35" y="386.72" width="431.49" height="3.43"/>
      <rect class="cls-6" x="-6.62" y="481.36" width="431.49" height="6.86"/>
      <rect class="cls-12" x="-5.77" y="474.78" width="431.49" height="6.58"/>
      <rect class="cls-8" x="-5.77" y="446.95" width="431.49" height="10.7"/>
      <rect class="cls-9" x="-4.92" y="443.52" width="431.49" height="3.43"/>
      <rect class="cls-8" x="-6.2" y="491.66" width="431.49" height="10.7"/>
      <rect class="cls-9" x="-5.35" y="488.23" width="431.49" height="3.43"/>
      <rect class="cls-12" x="-5.16" y="468.22" width="431.49" height="6.58"/>
      <rect class="cls-7" x="-5.35" y="457.65" width="431.49" height="10.57"/>
      <rect class="cls-6" x="-6.96" y="19.18" width="431.49" height="6.86"/>
      <rect class="cls-10" x="-6.1" y="26.04" width="431.49" height="23.71"/>
      <rect class="cls-7" x="-6.1" y="49.76" width="431.49" height="10.7"/>
      <rect class="cls-7" x="-5.25" y="60.46" width="431.49" height="11.39"/>
      <rect class="cls-14" x="-6.53" width="431.49" height="15.75"/>
      <rect class="cls-7" x="-5.68" y="15.75" width="431.49" height="3.43"/>
      <rect class="cls-6" x="-6.96" y="110.4" width="431.49" height="6.86"/>
      <rect class="cls-12" x="-6.1" y="103.82" width="431.49" height="6.58"/>
      <rect class="cls-8" x="-6.1" y="75.98" width="431.49" height="10.7"/>
      <rect class="cls-9" x="-5.25" y="72.55" width="431.49" height="3.43"/>
      <rect class="cls-8" x="-6.53" y="120.69" width="431.49" height="10.7"/>
      <rect class="cls-9" x="-5.68" y="117.26" width="431.49" height="3.43"/>
      <rect class="cls-7" x="-5.5" y="97.25" width="431.49" height="6.58"/>
      <rect class="cls-13" x="-5.68" y="86.68" width="431.49" height="10.57"/>
      <rect class="cls-6" x="-6.56" y="502.36" width="431.49" height="6.86"/>
      <rect class="cls-15" x="-6.14" y="512.65" width="431.49" height="31.68"/>
      <rect class="cls-7" x="-5.28" y="509.22" width="431.49" height="3.43"/>
      <rect class="cls-12" x="-7.26" y="572.16" width="431.49" height="6.58"/>
      <rect class="cls-8" x="-7.26" y="544.33" width="431.49" height="10.7"/>
      <rect class="cls-12" x="-6.65" y="565.59" width="431.49" height="6.58"/>
      <rect class="cls-13" x="-6.83" y="555.03" width="431.49" height="10.57"/>
      <rect class="cls-12" x="-5.07" y="578.73" width="431.49" height="6.58"/>
      <rect class="cls-7" x="-4.46" y="585.3" width="431.49" height="6.58"/>
      <rect class="cls-13" x="-4.65" y="591.88" width="431.49" height="10.57"/>
    </g>
    <g class="cls-16">
      <rect class="cls-17" x="432.19" y="585.55" width="136.54" height="246.79" transform="translate(-267.6 305.03) rotate(-27.04)"/>
    </g>
  </g>
</svg>
